<svg xmlns="http://www.w3.org/2000/svg" xmlns:xlink="http://www.w3.org/1999/xlink" viewBox="0 0 414.31 401.25"><defs><style>.cls-1{fill:#033240;}.cls-2{fill:#9ac355;}.cls-3{fill:#fff;}.cls-4{fill:url(#linear-gradient);}</style><linearGradient id="linear-gradient" x1="198.42" y1="376.09" x2="198.42" y2="191.45" gradientUnits="userSpaceOnUse"><stop offset="0" stop-color="#f1c056"/><stop offset="0.21" stop-color="#edc056"/><stop offset="0.43" stop-color="#e0c156"/><stop offset="0.65" stop-color="#ccc156"/><stop offset="0.87" stop-color="#afc255"/><stop offset="1" stop-color="#9ac355"/></linearGradient></defs><title>icon_circle</title><g id="Слой_2" data-name="Слой 2"><g id="Layer_1" data-name="Layer 1"><ellipse class="cls-1" cx="207.15" cy="200.62" rx="207.15" ry="200.62"/><path class="cls-2" d="M204.83,200.56V85.6q0-23.14,12.31-39.15t31.74-16a33.18,33.18,0,0,1,19.35,5.83q8.42,5.83,8.42,15.64a24.08,24.08,0,0,1-5.37,15.55,17,17,0,0,1-13.88,6.66,21.32,21.32,0,0,1-12.68-3.89A12,12,0,0,1,239.26,60q0-6.29,4.07-9.62a.8.8,0,0,1,1.11-.19,3.21,3.21,0,0,1,1.21,2.41,5.11,5.11,0,0,0,1.39,3,6.87,6.87,0,0,0,5.37,2,11.83,11.83,0,0,1,1.67-.18,7.74,7.74,0,0,0,5-2.69,9,9,0,0,0,2-6.2,8.39,8.39,0,0,0-4-7.31,16.37,16.37,0,0,0-9.35-2.69q-10,0-14.62,8.24T228.53,70V200.56"/><path class="cls-3" d="M320.18,199.31q0,43.37-30.95,78.1-33.75,37.87-83.53,37.87-47.36,0-77.56-34.58-28-32.06-28-76.37,0-35.83,15.47-62.7,14.91-25.93,40.09-36.93a16.34,16.34,0,0,1,4.66-1.26c1.12,0,1.69.37,1.69,1.1,0,1-1.13,2.35-3.36,3.92a80.73,80.73,0,0,0-16.59,15.87,83.59,83.59,0,0,0-13.24,28.13q-5.22,19.48-5.22,48.72,0,37.56,27,66.79,28,30.33,66.19,30.33,35.24,0,57.24-21.22,24-23.25,24.05-65.53,0-45.09-28-80.46-26.85-33.95-57.8-33.94-12.5,0-19.86,5.26t-7.36,13.91a13.85,13.85,0,0,0,3.54,9.19,11.64,11.64,0,0,0,9.32,4.16,27.63,27.63,0,0,0,2.8-.16,8.72,8.72,0,0,0,3.45-1.33,9.27,9.27,0,0,0,2.8-2.36,15.82,15.82,0,0,0,1.4-2.36c.38-.79.68-1.5.93-2.12,0-.63.25-.94.74-.94a2.69,2.69,0,0,1,1.86.94,13.56,13.56,0,0,1,1.86,7.55v1.57a5.78,5.78,0,0,0-.38,1.57,15.87,15.87,0,0,1-6.71,10.06,22.14,22.14,0,0,1-13.43,4.08q-11.93,0-19.58-7.54a24.67,24.67,0,0,1-7.64-18.23q0-15.86,16.22-25.77,14.54-8.8,34.12-8.8,46.42,0,75.88,34.57,27.78,32.53,27.78,78.89"/><path class="cls-4" d="M228.53,191.45v95.18q0,31.66-10.18,52.94A69.82,69.82,0,0,1,196.87,366a86.25,86.25,0,0,1-18.33,9.82,2.93,2.93,0,0,1-2.69-.19,3.6,3.6,0,0,1-1.48-2.78q-.28-2-.47-4.44-.74-2.78-1.29-4.81a59.53,59.53,0,0,0-2.13-6.57q-1-2.5-1.95-4.54c-.37-.87-.31-1.48.19-1.85a3.41,3.41,0,0,1,2.41-.37l5.74.74q11.29,0,18-10.36,10-15.37,10-52.58V191.45"/></g></g></svg>