<?xml version="1.0" encoding="utf-8"?>
<!-- Generator: Adobe Illustrator 19.0.0, SVG Export Plug-In . SVG Version: 6.00 Build 0)  -->
<svg version="1.1" id="Layer_1" xmlns="http://www.w3.org/2000/svg" xmlns:xlink="http://www.w3.org/1999/xlink" x="0px" y="0px"
	 viewBox="377.3 191 1033.4 412" style="enable-background:new 377.3 191 1033.4 412;" xml:space="preserve">
<style type="text/css">
	.st0{opacity:0.1;}
	.st1{fill:#FFFFFF;}
	.st2{fill:#923A95;}
	.st3{fill:#243839;}
	.st4{fill:#147AB7;}
	.st5{fill:#F56F41;}
	.st6{fill:#00AEB7;}
</style>
<title>Computer science</title>
<g id="dibujo_copy">
	<g class="st0">
		<path class="st1" d="M1410.7,336.2L1410.7,336.2c0-18.4-14.9-33.4-33.4-33.4h-186.1c-7.2,0-13.1-5.8-13.1-13.1v-1.7
			c0-7.2,5.8-13.1,13-13.1c0,0,0,0,0,0l0,0c23.2,0,42-18.8,42-42l0,0c0-23.2-18.8-42-42-42l0,0H527.5c-23.2,0-42,18.8-42,42l0,0l0,0
			c0,23.2,18.8,42,42,42H549c9.5,0,17.3,7.7,17.3,17.3v0l0,0c0,9.5-7.7,17.3-17.2,17.3c0,0,0,0-0.1,0H435.4
			c-20.5,0-37.1,16.6-37.1,37.1l0,0l0,0c0,20.5,16.6,37.1,37.1,37.1l0,0h49.4c10.9,0,19.8,8.9,19.8,19.8l0,0
			c0,10.9-8.9,19.8-19.8,19.8h-72.1c-19.6,0-35.4,15.9-35.4,35.5c0,0,0,0,0,0l0,0c0,19.6,15.9,35.5,35.5,35.5l0,0h203.7
			c8.3,0,15.1,6.8,15.1,15.1l0,0c0,8.3-6.8,15.1-15.1,15.1h-20c-21.6,0-39.2,17.5-39.2,39.2l0,0c0,21.6,17.5,39.2,39.1,39.2
			c0,0,0,0,0,0h692.6c21.6,0,39.2-17.5,39.2-39.2l0,0c0-21.6-17.5-39.2-39.2-39.2h-17.4c-12.6,0-22.9-10.3-22.9-22.9c0,0,0,0,0,0
			l0,0c0-12.6,10.3-22.9,22.9-22.9l0,0h84.3c21.1,0,38.2-17.1,38.2-38.2l0,0c0-21.1-17.1-38.3-38.2-38.3c0,0,0,0-0.1,0h-47.4
			c-9.1,0-16.4-7.3-16.4-16.4c0,0,0,0,0,0l0,0c0-9.1,7.3-16.4,16.4-16.4l0,0h68.7C1395.8,369.5,1410.7,354.6,1410.7,336.2
			L1410.7,336.2z"/>
	</g>
	<path class="st2" d="M1064.8,253.1V253c0-9.7-7.9-17.6-17.6-17.5c-9.7,0-17.6,7.9-17.5,17.6v0.1c0,9.7,7.9,17.6,17.6,17.5
		C1056.9,270.7,1064.8,262.8,1064.8,253.1L1064.8,253.1L1064.8,253.1z M1035.8,253.1V253c0-6.5,4.7-11.9,11.3-11.9s11.4,5.4,11.4,12
		v0.1c0,6.5-4.7,11.8-11.3,11.8S1035.8,259.7,1035.8,253.1L1035.8,253.1z"/>
	<path class="st2" d="M1047.1,501.2c9.5,0.2,17.4-7.3,17.6-16.8c0-0.2,0-0.4,0-0.6v-0.1c0-9.7-7.9-17.6-17.6-17.5
		c-9.7,0-17.6,7.9-17.5,17.6v0.1c-0.1,9.4,7.4,17.2,16.9,17.3C1046.7,501.2,1046.9,501.2,1047.1,501.2z M1035.8,483.7
		c0-6.5,4.7-11.9,11.3-11.9s11.4,5.4,11.4,12v0.1c0,6.5-4.7,11.8-11.3,11.8s-11.4-5.4-11.4-11.9V483.7z"/>
	<path class="st2" d="M926,191h-5.9v18.6c0.3,1.6,1.8,2.7,3.5,2.4c1.2-0.2,2.2-1.2,2.4-2.4L926,191z"/>
	<path class="st2" d="M1080.6,440.3V412c-0.3-1.6-1.8-2.7-3.5-2.4c-1.2,0.2-2.2,1.2-2.4,2.4v28.3c0.3,1.6,1.8,2.7,3.5,2.4
		C1079.4,442.5,1080.4,441.5,1080.6,440.3L1080.6,440.3z"/>
	<path class="st2" d="M926,412c-0.3-1.6-1.8-2.7-3.5-2.4c-1.2,0.2-2.2,1.2-2.4,2.4v28.3c0.3,1.6,1.8,2.7,3.5,2.4
		c1.2-0.2,2.2-1.2,2.4-2.4V412z"/>
	<path class="st2" d="M939.8,466.8c-1.6,0-3,1.2-3,2.8c0,0,0,0.1,0,0.1v28.3c0.3,1.6,1.8,2.7,3.5,2.4c1.2-0.2,2.2-1.2,2.4-2.4v-28.3
		C942.8,468.1,941.5,466.8,939.8,466.8C939.9,466.8,939.9,466.8,939.8,466.8z"/>
	<path class="st2" d="M942.8,354.4c-0.3-1.6-1.8-2.7-3.5-2.4c-1.2,0.2-2.2,1.2-2.4,2.4v28.3c0.3,1.6,1.8,2.7,3.5,2.4
		c1.2-0.2,2.2-1.2,2.4-2.4V354.4z"/>
	<path class="st2" d="M923.1,524.4c-1.6,0-3,1.2-3,2.8c0,0,0,0.1,0,0.1v28.3c0.3,1.6,1.8,2.7,3.5,2.4c1.2-0.2,2.2-1.2,2.4-2.4v-28.3
		C926,525.7,924.7,524.4,923.1,524.4C923.1,524.4,923.1,524.4,923.1,524.4z"/>
	<path class="st2" d="M910.2,483.8v-0.1c0-9.7-7.9-17.6-17.6-17.5c-9.7,0-17.6,7.9-17.5,17.6v0.1c0,9.7,7.9,17.6,17.6,17.5
		C902.3,501.4,910.2,493.5,910.2,483.8L910.2,483.8z M881.2,483.8v-0.1c0-6.5,4.7-11.9,11.3-11.9s11.4,5.4,11.4,12v0.1
		c0,6.5-4.7,11.8-11.3,11.8S881.2,490.4,881.2,483.8L881.2,483.8z"/>
	<path class="st2" d="M885.7,527.3v28.3c0.3,1.6,1.8,2.7,3.5,2.4c1.2-0.2,2.2-1.2,2.4-2.4v-28.3c-0.3-1.6-1.8-2.7-3.5-2.4
		C886.8,525.1,885.9,526.1,885.7,527.3z"/>
	<path class="st2" d="M926,296.7c-0.3-1.6-1.8-2.7-3.5-2.4c-1.2,0.2-2.2,1.2-2.4,2.4v28.3c0.3,1.6,1.8,2.7,3.5,2.4
		c1.2-0.2,2.2-1.2,2.4-2.4V296.7z"/>
	<path class="st2" d="M1029.6,368.6c0,9.7,7.9,17.6,17.6,17.5c9.7,0,17.6-7.9,17.5-17.6l0,0v-0.1c0-9.7-7.9-17.6-17.6-17.5
		c-9.7,0-17.6,7.9-17.5,17.6V368.6z M1035.8,368.4c0-6.5,4.7-11.9,11.3-11.9s11.4,5.4,11.4,12v0.1c0,6.5-4.7,11.8-11.3,11.8
		s-11.4-5.4-11.4-11.9V368.4z"/>
	<path class="st2" d="M942.8,239c-0.3-1.6-1.8-2.7-3.5-2.4c-1.2,0.2-2.2,1.2-2.4,2.4v28.3c0.3,1.6,1.8,2.7,3.5,2.4
		c1.2-0.2,2.2-1.2,2.4-2.4V239z"/>
	<path class="st2" d="M952.7,426.2c0,9.7,7.9,17.6,17.6,17.5c9.7,0,17.6-7.9,17.5-17.6l0,0V426c0-9.7-7.9-17.6-17.6-17.5
		c-9.7,0-17.6,7.9-17.5,17.6V426.2z M958.9,426c0-6.5,4.7-11.9,11.3-11.9s11.4,5.4,11.4,12v0.1c0,6.5-4.7,11.8-11.3,11.8
		s-11.4-5.4-11.4-11.9V426z"/>
	<path class="st2" d="M959.7,191h-6.4c-0.4,1.4-0.6,2.9-0.6,4.4v0.1c0,9.7,7.9,17.6,17.6,17.5c9.7,0,17.6-7.9,17.5-17.6v-0.1
		c0-1.5-0.2-2.9-0.5-4.3h-6.4c0.5,1.4,0.8,2.9,0.8,4.4v0.1c0,6.5-4.7,11.8-11.3,11.8s-11.4-5.4-11.4-11.9v-0.1
		C958.9,193.9,959.2,192.4,959.7,191z"/>
	<path class="st2" d="M987.9,310.8v-0.1c0-9.7-7.9-17.6-17.6-17.5c-9.7,0-17.6,7.9-17.5,17.6v0.1c0,9.7,7.9,17.6,17.6,17.5
		C980.1,328.4,987.9,320.5,987.9,310.8L987.9,310.8z M958.9,310.8v-0.1c0-6.5,4.7-11.9,11.3-11.9s11.4,5.4,11.4,12v0.1
		c0,6.5-4.7,11.8-11.3,11.8S958.9,317.4,958.9,310.8L958.9,310.8z"/>
	<path class="st2" d="M1082.4,310.7c0-9.7-7.9-17.6-17.6-17.5c-9.7,0-17.6,7.9-17.5,17.6v0.1c0,9.7,7.9,17.6,17.6,17.5
		c9.7,0,17.6-7.9,17.5-17.6l0,0V310.7z M1076.2,310.9c0,6.5-4.7,11.8-11.3,11.8s-11.4-5.4-11.4-11.9v-0.1c0-6.5,4.7-11.9,11.3-11.9
		S1076.2,304.3,1076.2,310.9L1076.2,310.9z"/>
	<path class="st2" d="M1019.7,191h-6.4c-0.4,1.4-0.6,2.9-0.6,4.4v0.1c0,9.7,7.9,17.6,17.6,17.5c9.7,0,17.6-7.9,17.5-17.6v-0.1
		c0-1.5-0.2-2.9-0.5-4.3h-6.4c0.5,1.4,0.8,2.9,0.8,4.4v0.1c0,6.5-4.7,11.8-11.3,11.8c-6.7,0-11.4-5.4-11.4-11.9v-0.1
		C1019,193.9,1019.2,192.4,1019.7,191z"/>
	<path class="st2" d="M1004.7,253c0-9.7-7.9-17.6-17.6-17.5c-9.7,0-17.6,7.9-17.5,17.6v0.1c0,9.7,7.9,17.6,17.6,17.5
		c9.7,0,17.6-7.9,17.5-17.6l0,0V253z M998.5,253.2c0,6.5-4.7,11.8-11.3,11.8s-11.4-5.4-11.4-11.9V253c0-6.5,4.7-11.9,11.3-11.9
		S998.5,246.6,998.5,253.2L998.5,253.2z"/>
	<path class="st2" d="M952.7,541.6c0,9.7,7.9,17.6,17.6,17.5c9.7,0,17.6-7.9,17.5-17.6l0,0v-0.1c0-9.7-7.9-17.6-17.6-17.5
		c-9.7,0-17.6,7.9-17.5,17.6V541.6z M958.9,541.4c0-6.5,4.7-11.9,11.3-11.9s11.4,5.4,11.4,12v0.1c0,6.5-4.7,11.8-11.3,11.8
		s-11.4-5.4-11.4-11.9V541.4z"/>
	<path class="st2" d="M1004.7,368.4c0-9.7-7.9-17.6-17.6-17.5c-9.7,0-17.6,7.9-17.5,17.6v0.1c0,9.7,7.9,17.6,17.6,17.5
		c9.7,0,17.6-7.9,17.5-17.6V368.4z M998.5,368.6c0,6.5-4.7,11.8-11.3,11.8s-11.4-5.4-11.4-11.9v-0.1c0-6.5,4.7-11.9,11.3-11.9
		S998.5,361.9,998.5,368.6L998.5,368.6z"/>
	<path class="st2" d="M1004.7,483.8v-0.1c0-9.7-7.9-17.6-17.6-17.5c-9.7,0-17.6,7.9-17.5,17.6v0.1c0,9.7,7.9,17.6,17.6,17.5
		C996.9,501.4,1004.7,493.5,1004.7,483.8L1004.7,483.8z M998.5,483.9c0,6.5-4.7,11.8-11.3,11.8s-11.4-5.4-11.4-11.9v-0.1
		c0-6.5,4.7-11.9,11.3-11.9S998.5,477.3,998.5,483.9L998.5,483.9z"/>
	<path class="st2" d="M1074.7,209.6c0.3,1.6,1.8,2.7,3.5,2.4c1.2-0.2,2.2-1.2,2.4-2.4V191h-5.9V209.6z"/>
	<path class="st2" d="M1189,236.1c-1.6,0-3,1.2-3,2.8c0,0,0,0.1,0,0.1v28.3c0.3,1.6,1.8,2.7,3.5,2.4c1.2-0.2,2.2-1.2,2.4-2.4V239
		C1191.9,237.4,1190.6,236.1,1189,236.1C1189,236.1,1189,236.1,1189,236.1z"/>
	<path class="st2" d="M1189,500.9c1.6,0,2.9-1.3,2.9-2.9c0,0,0,0,0,0v-28.3c-0.3-1.6-1.8-2.7-3.5-2.4c-1.2,0.2-2.2,1.2-2.4,2.4v28.3
		C1186,499.6,1187.3,500.9,1189,500.9C1189,500.9,1189,500.9,1189,500.9z"/>
	<path class="st2" d="M1237,541.4c0-9.7-7.9-17.6-17.6-17.5c-9.7,0-17.6,7.9-17.5,17.6v0.1c0,9.7,7.9,17.6,17.6,17.5
		C1229.2,559.1,1237,551.2,1237,541.4L1237,541.4z M1230.8,541.6c0,6.5-4.7,11.8-11.3,11.8s-11.5-5.4-11.5-11.9v-0.1
		c0-6.5,4.7-11.9,11.3-11.9S1230.8,534.9,1230.8,541.6L1230.8,541.6z"/>
	<path class="st2" d="M1253.9,408.8c-9.5-0.2-17.4,7.3-17.6,16.8c0,0.2,0,0.4,0,0.6v0.1c0,9.7,7.9,17.6,17.6,17.5
		c9.7,0,17.6-7.9,17.5-17.6l0,0V426c0.1-9.4-7.5-17.2-16.9-17.3C1254.4,408.7,1254.2,408.7,1253.9,408.8z M1265.3,426.2
		c0,6.5-4.7,11.8-11.3,11.8s-11.4-5.4-11.4-11.9V426c0-6.5,4.7-11.9,11.3-11.9s11.4,5.4,11.4,12V426.2z"/>
	<path class="st2" d="M1253.8,368.5v-0.1c0-9.7-7.9-17.6-17.6-17.5c-9.7,0-17.6,7.9-17.5,17.6v0.1c0,9.7,7.9,17.6,17.6,17.5
		C1246,386.1,1253.8,378.2,1253.8,368.5z M1247.6,368.6c0,6.5-4.7,11.8-11.3,11.8s-11.4-5.4-11.4-11.9v-0.1
		c0-6.5,4.7-11.9,11.3-11.9S1247.6,361.9,1247.6,368.6L1247.6,368.6z"/>
	<path class="st2" d="M1218.6,253.2c0,3.3,0.9,6.5,2.6,9.2c1.6-1.6,3-3.3,4.3-5.1c-0.5-1.3-0.7-2.8-0.7-4.2V253
		c-0.2-5,2.9-9.5,7.5-11.2c0.4-1.9,0.7-3.9,0.8-5.8c-8.4,1.3-14.6,8.6-14.5,17.1L1218.6,253.2z"/>
	<path class="st2" d="M1203.7,412v28.3c0.3,1.6,1.8,2.7,3.5,2.4c1.2-0.2,2.2-1.2,2.4-2.4V412c-0.3-1.6-1.8-2.7-3.5-2.4
		C1204.9,409.8,1203.9,410.8,1203.7,412z"/>
	<path class="st2" d="M1249.8,495c0.8-2.5,1.9-4.8,3.4-6.9c0.4-1.4,0.5-2.9,0.6-4.3v-0.1c0-9.7-7.9-17.6-17.6-17.5
		c-9.7,0-17.6,7.9-17.5,17.6v0.1c-0.1,9.4,7.4,17.2,16.9,17.3c0.2,0,0.5,0,0.7,0C1241.4,501.3,1246.4,499,1249.8,495z M1247.6,483.9
		c0,6.5-4.7,11.8-11.3,11.8s-11.4-5.4-11.4-11.9v-0.1c0-6.5,4.7-11.9,11.3-11.9S1247.6,477.3,1247.6,483.9L1247.6,483.9z"/>
	<path class="st2" d="M1191.9,354.4c-0.3-1.6-1.8-2.7-3.5-2.4c-1.2,0.2-2.2,1.2-2.4,2.4v28.3c0.3,1.6,1.8,2.7,3.5,2.4
		c1.2-0.2,2.2-1.2,2.4-2.4V354.4z"/>
	<path class="st2" d="M1201.8,310.9c0,9.7,7.9,17.6,17.6,17.5c9.7,0,17.6-7.9,17.5-17.6l0,0v-0.1c0-2.7-0.6-5.4-1.8-7.9h-7.2
		c1.9,2.2,2.9,5.1,2.8,8v0.1c0,6.5-4.7,11.8-11.3,11.8s-11.5-5.4-11.5-11.9v-0.1c0-2.9,0.9-5.7,2.8-7.9h-7c-1.3,2.5-1.9,5.2-1.9,8
		L1201.8,310.9z"/>
	<path class="st2" d="M893.4,599c0-9.7-7.9-17.6-17.6-17.5c-9.7,0-17.6,7.9-17.5,17.6v0.1c0,1.2,0.1,2.5,0.4,3.7h6.4
		c-0.4-1.2-0.6-2.5-0.6-3.8V599c0-6.5,4.7-11.9,11.3-11.9s11.4,5.4,11.4,12v0.1c0,1.3-0.2,2.5-0.5,3.7h6.3c0.3-1.3,0.4-2.5,0.4-3.8
		L893.4,599z"/>
	<path class="st2" d="M414.7,494.4c-3.9-2.1-6.2-6.2-6.1-10.6v-0.1c0-6.5,4.7-11.9,11.3-11.9s11.4,5.4,11.4,12v0.1
		c0.1,4.4-2.2,8.4-6,10.5h8.7c2.3-3.1,3.6-6.8,3.6-10.6v-0.1c0-9.7-7.9-17.6-17.6-17.5s-17.6,7.9-17.5,17.6v0.1c0,3.5,1,6.8,2.9,9.7
		c2.5,0.5,5,0.8,7.5,0.8L414.7,494.4z"/>
	<path class="st2" d="M501.7,212.5c1.6,0,2.9-1.3,2.9-2.9c0,0,0,0,0,0v-11.8c-2.1,1.4-4.1,2.9-5.9,4.7v7.1
		C498.7,211.2,500,212.5,501.7,212.5C501.6,212.5,501.7,212.5,501.7,212.5z"/>
	<path class="st2" d="M1296.3,351.1c-9.5-0.2-17.4,7.3-17.6,16.8c0,0.2,0,0.4,0,0.6v0.1c-0.1,8.2,5.6,15.2,13.6,16.9
		c0.1-1.9,0.4-3.7,1.1-5.5c-5.1-1.4-8.6-6.2-8.5-11.5v-0.1c0-6.5,4.7-11.9,11.3-11.9s11.4,5.4,11.4,12v0.1c0,0.3,0,0.7,0,1
		c0.3,0,0.7,0,1,0h5.2c0-0.4,0-0.7,0-1.1v-0.1c0.1-9.4-7.4-17.2-16.8-17.3C1296.8,351.1,1296.6,351.1,1296.3,351.1z"/>
	<path class="st2" d="M1107.3,195.6c0,9.7,7.9,17.6,17.6,17.5c9.7,0,17.6-7.9,17.5-17.6l0,0v-0.1c0-1.5-0.2-2.9-0.5-4.4h-6.4
		c0.5,1.4,0.8,2.9,0.8,4.4v0.1c0,6.5-4.7,11.8-11.3,11.8s-11.5-5.4-11.5-11.9v-0.1c0-1.5,0.2-2.9,0.7-4.3h-6.4
		C1107.5,192.5,1107.3,194,1107.3,195.6L1107.3,195.6z"/>
	<path class="st2" d="M669.9,599c0-9.7-7.9-17.6-17.6-17.5c-9.7,0-17.6,7.9-17.5,17.6v0.1c0,1.2,0.1,2.5,0.4,3.7h6.4
		c-0.4-1.2-0.6-2.5-0.6-3.8V599c0-6.5,4.7-11.9,11.3-11.9s11.4,5.4,11.4,12v0.1c0,1.3-0.2,2.5-0.5,3.7h6.3c0.3-1.3,0.4-2.5,0.4-3.8
		L669.9,599z"/>
	<path class="st2" d="M1392.7,430v10.3c0,1,0.5,2,1.4,2.5c0-0.7,0.1-1.5,0.1-2.2C1394.2,437,1393.7,433.5,1392.7,430z"/>
	<path class="st2" d="M1263.7,527.3v28.3c0.3,1.6,1.8,2.7,3.5,2.4c1.2-0.2,2.2-1.2,2.4-2.4v-28.3c-0.3-1.6-1.8-2.7-3.5-2.4
		C1264.9,525.1,1264,526.1,1263.7,527.3z"/>
	<path class="st2" d="M1298.2,412v28.3c0.3,1.6,1.8,2.7,3.5,2.4c1.2-0.2,2.2-1.2,2.4-2.4V412c-0.3-1.6-1.8-2.7-3.5-2.4
		C1299.4,409.8,1298.4,410.8,1298.2,412z"/>
	<path class="st2" d="M1020.5,324.9v-28.3c-0.3-1.6-1.8-2.7-3.5-2.4c-1.2,0.2-2.2,1.2-2.4,2.4v28.3c0.3,1.6,1.8,2.7,3.5,2.4
		C1019.3,327.2,1020.3,326.2,1020.5,324.9L1020.5,324.9z"/>
	<path class="st2" d="M1395.7,327.9c1.6,0,2.9-1.3,2.9-2.9c0,0,0,0,0,0v-14.5c-1.8-1.5-3.8-2.8-5.9-3.9V325
		C1392.7,326.6,1394,327.9,1395.7,327.9C1395.7,327.9,1395.7,327.9,1395.7,327.9z"/>
	<path class="st2" d="M1330.8,310.9c0,9.7,7.9,17.6,17.6,17.5c9.7,0,17.6-7.9,17.5-17.6l0,0v-0.1c0-2.7-0.6-5.4-1.8-7.9h-7.2
		c1.9,2.2,2.9,5.1,2.8,8v0.1c0,6.5-4.7,11.8-11.3,11.8s-11.5-5.4-11.5-11.9v-0.1c0-2.9,0.9-5.7,2.8-7.9h-7.1c-1.3,2.5-1.9,5.2-1.9,8
		L1330.8,310.9z"/>
	<path class="st2" d="M1089.6,483.9c0,9.7,7.9,17.6,17.6,17.5c9.7,0,17.6-7.9,17.5-17.6l0,0v-0.1c0-9.7-7.9-17.6-17.6-17.5
		c-9.7,0-17.6,7.9-17.5,17.6V483.9z M1095.8,483.7c0-6.5,4.7-11.9,11.3-11.9s11.4,5.4,11.4,12v0.1c0,6.5-4.7,11.8-11.3,11.8
		s-11.4-5.4-11.4-11.9V483.7z"/>
	<path class="st2" d="M1348.4,443.5c9.5,0.2,17.4-7.3,17.6-16.8c0-0.2,0-0.4,0-0.6V426c0-9.7-7.9-17.6-17.6-17.5
		c-9.7,0-17.6,7.9-17.5,17.6v0.1c-0.1,9.4,7.4,17.2,16.8,17.3C1347.9,443.5,1348.1,443.5,1348.4,443.5z M1337,426
		c0-6.5,4.7-11.9,11.3-11.9s11.4,5.4,11.4,12v0.1c0,6.5-4.7,11.8-11.3,11.8s-11.4-5.4-11.4-11.9V426z"/>
	<path class="st2" d="M1157.5,239c-0.3-1.6-1.8-2.7-3.5-2.4c-1.2,0.2-2.2,1.2-2.4,2.4v28.3c0.3,1.6,1.8,2.7,3.5,2.4
		c1.2-0.2,2.2-1.2,2.4-2.4V239z"/>
	<path class="st2" d="M1089.6,368.6c0,9.7,7.9,17.6,17.6,17.5c9.7,0,17.6-7.9,17.5-17.6l0,0v-0.1c0-9.7-7.9-17.6-17.6-17.5
		c-9.7,0-17.6,7.9-17.5,17.6V368.6z M1095.8,368.4c0-6.5,4.7-11.9,11.3-11.9s11.4,5.4,11.4,12v0.1c0,6.5-4.7,11.8-11.3,11.8
		s-11.4-5.4-11.4-11.9V368.4z"/>
	<path class="st2" d="M1154.5,466.8c-1.6,0-3,1.2-3,2.8c0,0,0,0.1,0,0.1v28.3c0.3,1.6,1.8,2.7,3.5,2.4c1.2-0.2,2.2-1.2,2.4-2.4
		v-28.3C1157.4,468.1,1156.1,466.8,1154.5,466.8C1154.5,466.8,1154.5,466.8,1154.5,466.8z"/>
	<path class="st2" d="M1124.9,558.9c9.5,0.2,17.4-7.3,17.6-16.8c0-0.2,0-0.4,0-0.6v-0.1c0-9.7-7.9-17.6-17.6-17.5
		c-9.7,0-17.6,7.9-17.5,17.6v0.1c-0.1,9.4,7.4,17.2,16.9,17.3C1124.4,558.9,1124.6,558.9,1124.9,558.9z M1113.5,541.4
		c0-6.5,4.7-11.9,11.3-11.9s11.4,5.4,11.4,12v0.1c0,6.5-4.7,11.8-11.3,11.8s-11.4-5.4-11.4-11.9V541.4z"/>
	<path class="st2" d="M1014.6,527.3v28.3c0.3,1.6,1.8,2.7,3.5,2.4c1.2-0.2,2.2-1.2,2.4-2.4v-28.3c-0.3-1.6-1.8-2.7-3.5-2.4
		C1015.8,525.1,1014.8,526.1,1014.6,527.3z"/>
	<path class="st2" d="M1142.5,426c0-9.7-7.9-17.6-17.6-17.5c-9.7,0-17.6,7.9-17.5,17.6v0.1c0,9.7,7.9,17.6,17.6,17.5
		c9.7,0,17.6-7.9,17.5-17.6V426z M1136.3,426.2c0,6.5-4.7,11.8-11.3,11.8s-11.4-5.4-11.4-11.9V426c0-6.5,4.7-11.9,11.3-11.9
		S1136.3,419.6,1136.3,426.2L1136.3,426.2z"/>
	<path class="st2" d="M1048,426.1V426c0-9.7-7.9-17.6-17.6-17.5c-9.7,0-17.6,7.9-17.5,17.6v0.1c0,9.7,7.9,17.6,17.6,17.5
		C1040.2,443.7,1048,435.8,1048,426.1L1048,426.1z M1019,426.1V426c0-6.5,4.7-11.9,11.3-11.9c6.7,0,11.4,5.4,11.4,12v0.1
		c0,6.5-4.7,11.8-11.3,11.8C1023.8,438.1,1019,432.7,1019,426.1z"/>
	<path class="st2" d="M1082.4,541.5L1082.4,541.5c0-9.8-7.9-17.7-17.6-17.6c-9.7,0-17.6,7.9-17.5,17.6v0.1c0,9.7,7.9,17.6,17.6,17.5
		S1082.5,551.2,1082.4,541.5z M1076.2,541.6c0,6.5-4.7,11.8-11.3,11.8s-11.4-5.4-11.4-11.9v-0.1c0-6.5,4.7-11.9,11.3-11.9
		S1076.2,534.9,1076.2,541.6L1076.2,541.6z"/>
	<path class="st2" d="M1124.8,253.1V253c0-9.7-7.9-17.6-17.6-17.5s-17.6,7.9-17.5,17.6v0.1c0,9.7,7.9,17.6,17.6,17.5
		C1117,270.7,1124.8,262.8,1124.8,253.1L1124.8,253.1L1124.8,253.1z M1095.8,253.1V253c0-6.5,4.7-11.9,11.3-11.9s11.4,5.4,11.4,12
		v0.1c0,6.5-4.7,11.8-11.3,11.8S1095.8,259.7,1095.8,253.1L1095.8,253.1z"/>
	<path class="st2" d="M1301.2,327.9c1.6,0,2.9-1.3,2.9-2.9c0,0,0,0,0,0v-22.1h-5.9v22.1C1298.2,326.6,1299.5,327.9,1301.2,327.9
		C1301.1,327.9,1301.2,327.9,1301.2,327.9z"/>
	<path class="st2" d="M1263.7,324.9c0.3,1.6,1.8,2.7,3.5,2.4c1.2-0.2,2.2-1.2,2.4-2.4v-22.1h-5.9V324.9z"/>
	<path class="st2" d="M1203.7,209.6c0.3,1.6,1.8,2.7,3.5,2.4c1.2-0.2,2.2-1.2,2.4-2.4v-14.4c-1.9-0.9-3.9-1.7-5.9-2.3V209.6z"/>
	<path class="st2" d="M1343.6,351.4c-1.6,0-3,1.2-3,2.8c0,0,0,0.1,0,0.1v15.2h5.9v-15.2C1346.5,352.7,1345.2,351.4,1343.6,351.4
		C1343.6,351.4,1343.6,351.4,1343.6,351.4z"/>
	<path class="st2" d="M1175.1,412c-0.3-1.6-1.8-2.7-3.5-2.4c-1.2,0.2-2.2,1.2-2.4,2.4v28.3c0.3,1.6,1.8,2.7,3.5,2.4
		c1.2-0.2,2.2-1.2,2.4-2.4V412z"/>
	<path class="st2" d="M1175.1,191h-5.9v18.6c0.3,1.6,1.8,2.7,3.5,2.4c1.2-0.2,2.2-1.2,2.4-2.4V191z"/>
	<path class="st2" d="M1175.1,296.7c-0.3-1.6-1.8-2.7-3.5-2.4c-1.2,0.2-2.2,1.2-2.4,2.4v28.3c0.3,1.6,1.8,2.7,3.5,2.4
		c1.2-0.2,2.2-1.2,2.4-2.4V296.7z"/>
	<path class="st2" d="M1172.2,524.4c-1.6,0-3,1.2-3,2.8c0,0,0,0.1,0,0.1v28.3c0.3,1.6,1.8,2.7,3.5,2.4c1.2-0.2,2.2-1.2,2.4-2.4
		v-28.3C1175.1,525.7,1173.8,524.4,1172.2,524.4C1172.2,524.4,1172.2,524.4,1172.2,524.4z"/>
	<path class="st2" d="M1157.5,354.4c-0.3-1.6-1.8-2.7-3.5-2.4c-1.2,0.2-2.2,1.2-2.4,2.4v28.3c0.3,1.6,1.8,2.7,3.5,2.4
		c1.2-0.2,2.2-1.2,2.4-2.4V354.4z"/>
	<path class="st2" d="M1142.5,310.7c0-9.7-7.9-17.6-17.6-17.5c-9.7,0-17.6,7.9-17.5,17.6v0.1c0,9.7,7.9,17.6,17.6,17.5
		c9.7,0,17.6-7.9,17.5-17.6l0,0V310.7z M1136.3,310.9c0,6.5-4.7,11.8-11.3,11.8s-11.4-5.4-11.4-11.9v-0.1c0-6.5,4.7-11.9,11.3-11.9
		S1136.3,304.3,1136.3,310.9L1136.3,310.9z"/>
	<path class="st2" d="M630.7,558.5c1.6,0,2.9-1.3,2.9-2.9c0,0,0,0,0,0v-28.3c-0.3-1.6-1.8-2.7-3.5-2.4c-1.2,0.2-2.2,1.2-2.4,2.4
		v28.3C627.7,557.2,629,558.5,630.7,558.5C630.6,558.5,630.6,558.5,630.7,558.5z"/>
	<path class="st2" d="M590.3,469.7c-0.3-1.6-1.8-2.7-3.5-2.4c-1.2,0.2-2.2,1.2-2.4,2.4v24.8h5.9V469.7z"/>
	<path class="st2" d="M485.7,236.6c0.2,2.3,0.6,4.6,1.1,6.9c2.9,2.3,4.6,5.9,4.6,9.6v0.1c0,0.4,0,0.8-0.1,1.1
		c1.3,2.2,2.9,4.4,4.6,6.3c1.1-2.4,1.7-4.9,1.7-7.5V253C497.7,245.5,492.9,238.8,485.7,236.6z"/>
	<path class="st2" d="M536.1,327.9c1.6,0,2.9-1.3,2.9-2.9c0,0,0,0,0,0v-15.3h-5.9v15.3C533.2,326.6,534.5,327.9,536.1,327.9
		C536.1,327.9,536.1,327.9,536.1,327.9z"/>
	<path class="st2" d="M633.6,296.7c-0.3-1.6-1.8-2.7-3.5-2.4c-1.2,0.2-2.2,1.2-2.4,2.4v28.3c0.3,1.6,1.8,2.7,3.5,2.4
		c1.2-0.2,2.2-1.2,2.4-2.4V296.7z"/>
	<path class="st2" d="M409.5,373.4c-0.7-1.6-1-3.2-1-4.9v-0.1c0-6.5,4.7-11.9,11.3-11.9c6.7,0,11.4,5.4,11.4,12v0.1
		c0,6.5-4.7,11.8-11.3,11.8h-0.4c3,1.4,6.3,2.4,9.6,3c5.2-3.1,8.4-8.8,8.4-14.9v-0.1c-0.2-9.7-8.3-17.5-18-17.3
		c-8,0.2-14.9,5.7-16.8,13.4C404.6,367.9,406.9,370.8,409.5,373.4z"/>
	<path class="st2" d="M407.2,443.2c1.6,0,2.9-1.3,2.9-2.9c0,0,0,0,0,0v-16.6c-2,0.1-4,0.5-5.9,0.9v15.7
		C404.2,441.9,405.5,443.2,407.2,443.2C407.1,443.2,407.1,443.2,407.2,443.2z"/>
	<path class="st2" d="M407.2,327.9c1.6,0,2.9-1.3,2.9-2.9c0,0,0,0,0,0v-5.3c-2.1,2-4,4.2-5.6,6.6C405,327.2,406,327.9,407.2,327.9z"
		/>
	<path class="st2" d="M567.6,209.6c0.3,1.6,1.8,2.7,3.5,2.4c1.2-0.2,2.2-1.2,2.4-2.4V191h-5.9V209.6z"/>
	<path class="st2" d="M533.2,209.6c0.3,1.6,1.8,2.7,3.5,2.4c1.2-0.2,2.2-1.2,2.4-2.4V191h-5.9V209.6z"/>
	<path class="st2" d="M602.1,209.6c0.3,1.6,1.8,2.7,3.5,2.4c1.2-0.2,2.2-1.2,2.4-2.4V191h-5.9V209.6z"/>
	<path class="st2" d="M567.6,412v28.3c0.3,1.6,1.8,2.7,3.5,2.4c1.2-0.2,2.2-1.2,2.4-2.4V412c-0.3-1.6-1.8-2.7-3.5-2.4
		C568.8,409.8,567.8,410.8,567.6,412z"/>
	<path class="st2" d="M498.7,324.9c0.3,1.6,1.8,2.7,3.5,2.4c1.2-0.2,2.2-1.2,2.4-2.4v-15.3h-5.9V324.9z"/>
	<path class="st2" d="M590.3,267.3V239c-0.3-1.6-1.8-2.7-3.5-2.4c-1.2,0.2-2.2,1.2-2.4,2.4v28.3c0.3,1.6,1.8,2.7,3.5,2.4
		C589.1,269.5,590.1,268.5,590.3,267.3L590.3,267.3z"/>
	<path class="st2" d="M565.8,310.8v0.1c0,9.7,7.9,17.6,17.6,17.5c9.7,0,17.6-7.9,17.5-17.6l0,0v-0.1c0-9.7-7.9-17.6-17.6-17.5
		C573.6,293.2,565.8,301.1,565.8,310.8z M594.8,310.8v0.1c0,6.5-4.7,11.8-11.3,11.8s-11.5-5.4-11.5-11.9v-0.1
		c0-6.5,4.7-11.9,11.3-11.9S594.8,304.3,594.8,310.8L594.8,310.8z"/>
	<path class="st2" d="M587.4,351.4c-1.6,0-3,1.2-3,2.8c0,0,0,0.1,0,0.1v28.3c0.3,1.6,1.8,2.7,3.5,2.4c1.2-0.2,2.2-1.2,2.4-2.4v-28.3
		C590.3,352.7,589,351.4,587.4,351.4C587.4,351.4,587.4,351.4,587.4,351.4z"/>
	<path class="st2" d="M487.8,384.2c6.1-2.9,9.9-9,9.8-15.7v-0.1c0-9.7-7.9-17.6-17.6-17.5c-9.7,0-17.6,7.9-17.5,17.6v0.1
		c-0.1,6.4,3.5,12.4,9.2,15.3h13.2C485.8,383.9,486.8,384,487.8,384.2z M468.6,368.5v-0.1c0-6.5,4.7-11.9,11.3-11.9
		s11.4,5.4,11.4,12v0.1c0,6.5-4.7,11.8-11.3,11.8S468.6,375,468.6,368.5L468.6,368.5z"/>
	<path class="st2" d="M454.4,328.2c9.5,0.2,17.4-7.3,17.6-16.8c0-0.2,0-0.4,0-0.6v-0.1c0-0.4,0-0.7,0-1.1h-6.2
		c0,0.4,0.1,0.8,0.1,1.2v0.1c0,6.5-4.7,11.8-11.3,11.8s-11.5-5.4-11.5-11.9v-0.1c0-0.4,0-0.7,0-1.1h-6.2c0,0.4-0.1,0.8-0.1,1.2v0.1
		c-0.1,9.4,7.4,17.2,16.8,17.3C453.8,328.2,454.1,328.2,454.4,328.2z"/>
	<path class="st2" d="M618.9,494.6c2.1,0.3,4.1,1.1,5.9,2.3v-27.3c-0.3-1.6-1.8-2.7-3.5-2.4c-1.2,0.2-2.2,1.2-2.4,2.4V494.6z"/>
	<path class="st2" d="M618.9,382.6c0.3,1.6,1.8,2.7,3.5,2.4c1.2-0.2,2.2-1.2,2.4-2.4v-28.3c-0.3-1.6-1.8-2.7-3.5-2.4
		c-1.2,0.2-2.2,1.2-2.4,2.4V382.6z"/>
	<path class="st2" d="M621.8,236.1c-1.6,0-3,1.2-3,2.8c0,0,0,0.1,0,0.1v28.3c0.3,1.6,1.8,2.7,3.5,2.4c1.2-0.2,2.2-1.2,2.4-2.4V239
		C624.7,237.4,623.4,236.1,621.8,236.1C621.8,236.1,621.8,236.1,621.8,236.1z"/>
	<path class="st2" d="M608,440.3V412c-0.3-1.6-1.8-2.7-3.5-2.4c-1.2,0.2-2.2,1.2-2.4,2.4v28.3c0.3,1.6,1.8,2.7,3.5,2.4
		C606.8,442.5,607.8,441.5,608,440.3L608,440.3z"/>
	<path class="st2" d="M540.1,235.8c-9.5-0.2-17.4,7.3-17.6,16.8c0,0.2,0,0.4,0,0.6v0.1c0,9.7,7.9,17.6,17.6,17.5
		c9.7,0,17.6-7.9,17.5-17.6l0,0V253c0.1-9.4-7.5-17.2-16.9-17.3C540.6,235.7,540.4,235.7,540.1,235.8z M551.5,253.2
		c0,6.5-4.7,11.8-11.3,11.8s-11.4-5.4-11.4-11.9V253c0-6.5,4.7-11.9,11.3-11.9s11.4,5.4,11.4,12V253.2z"/>
	<path class="st2" d="M1209.6,585c-0.3-1.6-1.8-2.7-3.5-2.4c-1.2,0.2-2.2,1.2-2.4,2.4v18h5.9V585z"/>
	<path class="st2" d="M1271.5,599c0-9.7-7.9-17.6-17.6-17.5c-9.7,0-17.6,7.9-17.5,17.6v0.1c0,1.2,0.1,2.5,0.4,3.7h6.4
		c-0.4-1.2-0.6-2.5-0.6-3.8V599c0-6.5,4.7-11.9,11.3-11.9s11.4,5.4,11.4,12v0.1c0,1.3-0.2,2.5-0.5,3.7h6.3c0.3-1.3,0.4-2.5,0.4-3.8
		L1271.5,599z"/>
	<path class="st2" d="M1175.1,585c-0.3-1.6-1.8-2.7-3.5-2.4c-1.2,0.2-2.2,1.2-2.4,2.4v18h5.9V585z"/>
	<path class="st2" d="M1142.5,599c0-9.7-7.9-17.6-17.6-17.5c-9.7,0-17.6,7.9-17.5,17.6v0.1c0,1.2,0.1,2.5,0.4,3.7h6.4
		c-0.4-1.2-0.6-2.5-0.6-3.8V599c0-6.5,4.7-11.9,11.3-11.9s11.4,5.4,11.4,12v0.1c0,1.3-0.2,2.5-0.5,3.7h6.3c0.3-1.3,0.4-2.5,0.4-3.8
		L1142.5,599z"/>
	<path class="st2" d="M1077.7,582.1c-1.6,0-3,1.2-3,2.8c0,0,0,0.1,0,0.1v18h5.9v-18C1080.6,583.4,1079.3,582.1,1077.7,582.1
		C1077.7,582.1,1077.7,582.1,1077.7,582.1z"/>
	<path class="st2" d="M1301.2,582.1c-1.6,0-3,1.2-3,2.8c0,0,0,0.1,0,0.1v16.8c2-0.5,4-1.1,5.9-1.9V585
		C1304.1,583.4,1302.8,582.1,1301.2,582.1C1301.2,582.1,1301.2,582.1,1301.2,582.1z"/>
	<path class="st2" d="M1390.8,351.1c-9.5-0.2-17.4,7.3-17.6,16.8c0,0.2,0,0.4,0,0.6v0.1c0,0.3,0,0.6,0,1h4.1c0.7,0,1.4,0,2.1-0.1
		c0-0.3,0-0.7,0-1v-0.1c0-6.5,4.7-11.9,11.3-11.9c3.5,0,6.9,1.6,9,4.4c1.5-1.3,2.8-2.8,4.1-4.4C1400.5,353,1395.7,351,1390.8,351.1z
		"/>
	<path class="st2" d="M1377.8,472c1.4-1,2.8-2.1,4.1-3.2C1380.3,469.6,1378.9,470.7,1377.8,472z"/>
	<path class="st2" d="M497.6,483.7c0-9.7-7.9-17.6-17.6-17.5s-17.6,7.9-17.5,17.6v0.1c0,3.8,1.2,7.5,3.5,10.5h8.8
		c-3.9-2.1-6.2-6.2-6.1-10.6v-0.1c0-6.5,4.7-11.9,11.3-11.9s11.4,5.4,11.4,12v0.1c0.1,4.4-2.2,8.4-6,10.5h8.6
		c2.3-3.1,3.6-6.8,3.5-10.6L497.6,483.7z"/>
	<path class="st2" d="M1296.3,466.4c-7.8-0.2-14.7,4.9-16.9,12.4h6.5c1.7-4.3,5.8-7.1,10.4-7c4.6,0,8.7,2.8,10.4,7h6.5
		C1311.1,471.3,1304.1,466.2,1296.3,466.4z"/>
	<path class="st2" d="M1346.5,469.7c-0.3-1.6-1.8-2.7-3.5-2.4c-1.2,0.2-2.2,1.2-2.4,2.4v9.1h5.9V469.7z"/>
	<path class="st2" d="M1298.7,525.8c-0.3,0.5-0.4,1-0.4,1.5v28.3c0.3,1.6,1.8,2.7,3.5,2.4c1.2-0.2,2.2-1.2,2.4-2.4v-28
		C1302.3,526.9,1300.5,526.3,1298.7,525.8z"/>
	<path class="st2" d="M608,585c-0.3-1.6-1.8-2.7-3.5-2.4c-1.2,0.2-2.2,1.2-2.4,2.4v18h5.9V585z"/>
	<path class="st2" d="M701,599.2V599c0-6.5,4.7-11.9,11.3-11.9s11.4,5.4,11.4,12v0.1c0,1.3-0.2,2.5-0.5,3.7h6.3
		c0.3-1.3,0.4-2.5,0.4-3.8V599c0-9.7-7.9-17.6-17.6-17.5c-9.7,0-17.6,7.9-17.5,17.6v0.1c0,1.2,0.1,2.5,0.4,3.7h6.4
		C701.2,601.7,701,600.4,701,599.2z"/>
	<path class="st2" d="M893.4,426.1V426c0-9.7-7.9-17.6-17.6-17.5c-9.7,0-17.6,7.9-17.5,17.6v0.1c0,9.7,7.9,17.6,17.6,17.5
		C885.6,443.7,893.4,435.8,893.4,426.1L893.4,426.1z M864.4,426.1V426c0-6.5,4.7-11.9,11.3-11.9s11.4,5.4,11.4,12v0.1
		c0,6.5-4.7,11.8-11.3,11.8S864.4,432.7,864.4,426.1L864.4,426.1z"/>
	<path class="st2" d="M759.7,582.1c-1.6,0-3,1.2-3,2.8c0,0,0,0.1,0,0.1v18h5.9v-18C762.6,583.4,761.3,582.1,759.7,582.1
		C759.7,582.1,759.7,582.1,759.7,582.1z"/>
	<path class="st2" d="M528.7,483.8v-0.1c0-6.5,4.7-11.9,11.3-11.9s11.4,5.4,11.4,12v0.1c0.1,4.4-2.2,8.4-6,10.5h8.7
		c2.3-3.1,3.6-6.8,3.5-10.6v-0.1c0-9.7-7.9-17.6-17.6-17.5c-9.7,0-17.6,7.9-17.5,17.6v0.1c0,3.8,1.2,7.5,3.5,10.5h8.8
		C531,492.3,528.6,488.2,528.7,483.8z"/>
	<path class="st2" d="M831.5,585c-0.3-1.6-1.8-2.7-3.5-2.4c-1.2,0.2-2.2,1.2-2.4,2.4v18h5.9V585z"/>
	<path class="st2" d="M926,585c-0.3-1.6-1.8-2.7-3.5-2.4c-1.2,0.2-2.2,1.2-2.4,2.4v18h5.9V585z"/>
	<path class="st2" d="M987.9,599c0-9.7-7.9-17.6-17.6-17.5c-9.7,0-17.6,7.9-17.5,17.6v0.1c0,1.2,0.1,2.5,0.4,3.7h6.4
		c-0.4-1.2-0.6-2.5-0.6-3.8V599c0-6.5,4.7-11.9,11.3-11.9s11.4,5.4,11.4,12v0.1c0,1.3-0.2,2.5-0.5,3.7h6.3c0.3-1.3,0.4-2.5,0.4-3.8
		L987.9,599z"/>
	<path class="st2" d="M794.1,582.1c-1.6,0-3,1.2-3,2.8c0,0,0,0.1,0,0.1v18h5.9v-18C797,583.4,795.7,582.1,794.1,582.1L794.1,582.1z"
		/>
	<path class="st2" d="M1019,599.2V599c0-6.5,4.7-11.9,11.3-11.9c6.7,0,11.4,5.4,11.4,12v0.1c0,1.3-0.2,2.5-0.5,3.7h6.3
		c0.3-1.3,0.4-2.5,0.4-3.8V599c0-9.7-7.9-17.6-17.6-17.5c-9.7,0-17.6,7.9-17.5,17.6v0.1c0,1.2,0.1,2.5,0.4,3.7h6.4
		C1019.2,601.7,1019,600.4,1019,599.2z"/>
	<path class="st2" d="M573.5,595.5V585c-0.3-1.6-1.8-2.7-3.5-2.4c-1.2,0.2-2.2,1.2-2.4,2.4v5.3C569.4,592.2,571.4,594,573.5,595.5z"
		/>
	<path class="st2" d="M807.9,497.9c0.3,1.6,1.8,2.7,3.5,2.4c1.2-0.2,2.2-1.2,2.4-2.4v-28.3c-0.3-1.6-1.8-2.7-3.5-2.4
		c-1.2,0.2-2.2,1.2-2.4,2.4V497.9z"/>
	<path class="st2" d="M824.5,310.7c0-9.7-7.9-17.6-17.6-17.5c-9.7,0-17.6,7.9-17.5,17.6v0.1c0,9.7,7.9,17.6,17.6,17.5
		c9.7,0,17.6-7.9,17.5-17.6l0,0V310.7z M818.3,310.9c0,6.5-4.7,11.8-11.3,11.8s-11.4-5.4-11.4-11.9v-0.1c0-6.5,4.7-11.9,11.3-11.9
		C813.5,298.8,818.3,304.3,818.3,310.9L818.3,310.9z"/>
	<path class="st2" d="M828.6,409.1c-1.6,0-3,1.2-3,2.8c0,0,0,0.1,0,0.1v28.3c0.3,1.6,1.8,2.7,3.5,2.4c1.2-0.2,2.2-1.2,2.4-2.4V412
		C831.5,410.4,830.2,409.1,828.6,409.1C828.6,409.1,828.6,409.1,828.6,409.1z"/>
	<path class="st2" d="M797,440.3V412c-0.3-1.6-1.8-2.7-3.5-2.4c-1.2,0.2-2.2,1.2-2.4,2.4v28.3c0.3,1.6,1.8,2.7,3.5,2.4
		C795.8,442.5,796.8,441.5,797,440.3L797,440.3z"/>
	<path class="st2" d="M789.3,541.6c0,9.7,7.9,17.6,17.6,17.5s17.6-7.9,17.5-17.6l0,0v-0.1c0-9.7-7.9-17.6-17.6-17.5
		c-9.7,0-17.6,7.9-17.5,17.6V541.6z M795.5,541.4c0-6.5,4.7-11.9,11.3-11.9s11.4,5.4,11.4,12v0.1c0,6.5-4.7,11.8-11.3,11.8
		S795.5,548,795.5,541.4L795.5,541.4z"/>
	<path class="st2" d="M810.9,385.5c1.6,0,2.9-1.3,2.9-2.9c0,0,0,0,0,0v-28.3c-0.3-1.6-1.8-2.7-3.5-2.4c-1.2,0.2-2.2,1.2-2.4,2.4
		v28.3C807.9,384.2,809.2,385.5,810.9,385.5C810.8,385.5,810.8,385.5,810.9,385.5z"/>
	<path class="st2" d="M776.4,466.8c-1.6,0-3,1.2-3,2.8c0,0,0,0.1,0,0.1v28.3c0.3,1.6,1.8,2.7,3.5,2.4c1.2-0.2,2.2-1.2,2.4-2.4v-28.3
		C779.3,468.1,778,466.8,776.4,466.8C776.4,466.8,776.4,466.8,776.4,466.8z"/>
	<path class="st2" d="M779.4,239c-0.3-1.6-1.8-2.7-3.5-2.4c-1.2,0.2-2.2,1.2-2.4,2.4v28.3c0.3,1.6,1.8,2.7,3.5,2.4
		c1.2-0.2,2.2-1.2,2.4-2.4V239z"/>
	<path class="st2" d="M779.4,354.4c-0.3-1.6-1.8-2.7-3.5-2.4c-1.2,0.2-2.2,1.2-2.4,2.4v28.3c0.3,1.6,1.8,2.7,3.5,2.4
		c1.2-0.2,2.2-1.2,2.4-2.4V354.4z"/>
	<path class="st2" d="M791.1,209.6c0.3,1.6,1.8,2.7,3.5,2.4c1.2-0.2,2.2-1.2,2.4-2.4V191h-5.9V209.6z"/>
	<path class="st2" d="M813.8,267.3V239c-0.3-1.6-1.8-2.7-3.5-2.4c-1.2,0.2-2.2,1.2-2.4,2.4v28.3c0.3,1.6,1.8,2.7,3.5,2.4
		C812.6,269.5,813.6,268.5,813.8,267.3L813.8,267.3z"/>
	<path class="st2" d="M831.5,191h-5.9v18.6c0.3,1.6,1.8,2.7,3.5,2.4c1.2-0.2,2.2-1.2,2.4-2.4V191z"/>
	<path class="st2" d="M857.1,296.7c-0.3-1.6-1.8-2.7-3.5-2.4c-1.2,0.2-2.2,1.2-2.4,2.4v28.3c0.3,1.6,1.8,2.7,3.5,2.4
		c1.2-0.2,2.2-1.2,2.4-2.4V296.7z"/>
	<path class="st2" d="M910.2,253c0-9.7-7.9-17.6-17.6-17.5c-9.7,0-17.6,7.9-17.5,17.6v0.1c0,9.7,7.9,17.6,17.6,17.5
		c9.7,0,17.6-7.9,17.5-17.6l0,0V253z M904,253.2c0,6.5-4.7,11.8-11.3,11.8s-11.4-5.4-11.4-11.9V253c0-6.5,4.7-11.9,11.3-11.9
		S904,246.6,904,253.2L904,253.2z"/>
	<path class="st2" d="M865.2,191h-6.4c-0.4,1.4-0.6,2.9-0.6,4.4v0.1c0,9.7,7.9,17.6,17.6,17.5c9.7,0,17.6-7.9,17.5-17.6v-0.1
		c0-1.5-0.2-2.9-0.5-4.3h-6.5c0.5,1.4,0.8,2.9,0.8,4.4v0.1c0,6.5-4.7,11.8-11.3,11.8s-11.4-5.4-11.4-11.9v-0.1
		C864.4,193.9,864.7,192.4,865.2,191z"/>
	<path class="st2" d="M891.6,324.9v-28.3c-0.3-1.6-1.8-2.7-3.5-2.4c-1.2,0.2-2.2,1.2-2.4,2.4v28.3c0.3,1.6,1.8,2.7,3.5,2.4
		C890.4,327.2,891.3,326.2,891.6,324.9L891.6,324.9z"/>
	<path class="st2" d="M910.2,368.4c0-9.7-7.9-17.6-17.6-17.5c-9.7,0-17.6,7.9-17.5,17.6v0.1c0,9.7,7.9,17.6,17.6,17.5
		c9.7,0,17.6-7.9,17.5-17.6V368.4z M904,368.6c0,6.5-4.7,11.8-11.3,11.8s-11.4-5.4-11.4-11.9v-0.1c0-6.5,4.7-11.9,11.3-11.9
		S904,361.9,904,368.6L904,368.6z"/>
	<path class="st2" d="M854.2,524.4c-1.6,0-3,1.2-3,2.8c0,0,0,0.1,0,0.1v28.3c0.3,1.6,1.8,2.7,3.5,2.4c1.2-0.2,2.2-1.2,2.4-2.4v-28.3
		C857.1,525.7,855.8,524.4,854.2,524.4C854.2,524.4,854.2,524.4,854.2,524.4z"/>
	<path class="st2" d="M845.3,466.8c-1.6,0-3,1.2-3,2.8c0,0,0,0.1,0,0.1v28.3c0.3,1.6,1.8,2.7,3.5,2.4c1.2-0.2,2.2-1.2,2.4-2.4v-28.3
		C848.3,468.1,847,466.8,845.3,466.8C845.3,466.8,845.3,466.8,845.3,466.8z"/>
	<path class="st2" d="M848.3,239c-0.3-1.6-1.8-2.7-3.5-2.4c-1.2,0.2-2.2,1.2-2.4,2.4v28.3c0.3,1.6,1.8,2.7,3.5,2.4
		c1.2-0.2,2.2-1.2,2.4-2.4V239z"/>
	<path class="st2" d="M848.3,354.4c-0.3-1.6-1.8-2.7-3.5-2.4c-1.2,0.2-2.2,1.2-2.4,2.4v28.3c0.3,1.6,1.8,2.7,3.5,2.4
		c1.2-0.2,2.2-1.2,2.4-2.4V354.4z"/>
	<path class="st2" d="M465.8,426.1v0.1c0,6.5-4.7,11.8-11.3,11.8s-11.5-5.4-11.5-11.9V426c0-0.8,0.1-1.7,0.2-2.5H437
		c-0.1,0.9-0.2,1.7-0.2,2.6v0.1c0,9.7,7.9,17.6,17.6,17.5c9.7,0,17.6-7.9,17.5-17.6l0,0V426c0-0.8-0.1-1.7-0.2-2.5h-6.3
		C465.7,424.4,465.8,425.3,465.8,426.1z"/>
	<path class="st2" d="M764.4,541.5L764.4,541.5c0-9.8-7.9-17.7-17.6-17.6c-9.7,0-17.6,7.9-17.5,17.6v0.1c0,9.7,7.9,17.6,17.6,17.5
		C756.6,559.1,764.4,551.2,764.4,541.5z M758.2,541.6c0,6.5-4.7,11.8-11.3,11.8s-11.4-5.4-11.4-11.9v-0.1c0-6.5,4.7-11.9,11.3-11.9
		S758.2,534.9,758.2,541.6L758.2,541.6z"/>
	<path class="st2" d="M686.7,253c0-9.7-7.9-17.6-17.6-17.5s-17.6,7.9-17.5,17.6v0.1c0,9.7,7.9,17.6,17.6,17.5
		c9.7,0,17.6-7.9,17.5-17.6l0,0V253z M680.5,253.2c0,6.5-4.7,11.8-11.3,11.8s-11.4-5.4-11.4-11.9V253c0-6.5,4.7-11.9,11.3-11.9
		S680.5,246.6,680.5,253.2L680.5,253.2z"/>
	<path class="st2" d="M641.6,191h-6.4c-0.4,1.4-0.6,2.9-0.6,4.4v0.1c0,9.7,7.9,17.6,17.6,17.5c9.7,0,17.6-7.9,17.5-17.6v-0.1
		c0-1.5-0.2-2.9-0.5-4.3h-6.4c0.5,1.4,0.8,2.9,0.8,4.4v0.1c0,6.5-4.7,11.8-11.3,11.8s-11.4-5.4-11.4-11.9v-0.1
		C640.9,193.9,641.1,192.4,641.6,191z"/>
	<path class="st2" d="M662.1,527.3v28.3c0.3,1.6,1.8,2.7,3.5,2.4c1.2-0.2,2.2-1.2,2.4-2.4v-28.3c-0.3-1.6-1.8-2.7-3.5-2.4
		C663.3,525.1,662.4,526.1,662.1,527.3z"/>
	<path class="st2" d="M686.7,368.4c0-9.7-7.9-17.6-17.6-17.5c-9.7,0-17.6,7.9-17.5,17.6v0.1c0,9.7,7.9,17.6,17.6,17.5
		c9.7,0,17.6-7.9,17.5-17.6V368.4z M680.5,368.6c0,6.5-4.7,11.8-11.3,11.8s-11.4-5.4-11.4-11.9v-0.1c0-6.5,4.7-11.9,11.3-11.9
		S680.5,361.9,680.5,368.6L680.5,368.6z"/>
	<path class="st2" d="M669.9,426.1V426c0-9.7-7.9-17.6-17.6-17.5c-9.7,0-17.6,7.9-17.5,17.6v0.1c0,9.7,7.9,17.6,17.6,17.5
		C662.1,443.7,669.9,435.8,669.9,426.1L669.9,426.1z M640.9,426.1V426c0-6.5,4.7-11.9,11.3-11.9s11.4,5.4,11.4,12v0.1
		c0,6.5-4.7,11.8-11.3,11.8S640.9,432.7,640.9,426.1L640.9,426.1z"/>
	<path class="st2" d="M668,324.9v-28.3c-0.3-1.6-1.8-2.7-3.5-2.4c-1.2,0.2-2.2,1.2-2.4,2.4v28.3c0.3,1.6,1.8,2.7,3.5,2.4
		C666.9,327.2,667.8,326.2,668,324.9L668,324.9z"/>
	<path class="st2" d="M601,541.4c0.1-7.2-4.4-13.7-11.2-16.2c-9.4,1.6-17.8,6.6-23.8,14c-0.1,0.8-0.2,1.5-0.2,2.3v0.1
		c0,9.7,7.9,17.6,17.6,17.5C593.2,559.1,601,551.2,601,541.4L601,541.4L601,541.4z M594.8,541.6c0,6.5-4.7,11.8-11.3,11.8
		S572,548,572,541.5v-0.1c0-6.5,4.7-11.9,11.3-11.9S594.8,534.9,594.8,541.6L594.8,541.6z"/>
	<path class="st2" d="M498.7,417.8v22.4c0.3,1.6,1.8,2.7,3.5,2.4c1.2-0.2,2.2-1.2,2.4-2.4V412c0-0.8-0.4-1.6-1-2.2
		C502.6,412.9,501,415.6,498.7,417.8z"/>
	<path class="st2" d="M730,426.1V426c0-9.7-7.9-17.6-17.6-17.5c-9.7,0-17.6,7.9-17.5,17.6v0.1c0,9.7,7.9,17.6,17.6,17.5
		C722.2,443.7,730,435.8,730,426.1L730,426.1z M701,426.1V426c0-6.5,4.7-11.9,11.3-11.9s11.4,5.4,11.4,12v0.1
		c0,6.5-4.7,11.8-11.3,11.8S701,432.7,701,426.1z"/>
	<path class="st2" d="M557.7,368.5v-0.1c0-9.7-7.9-17.6-17.6-17.5c-9.7,0-17.6,7.9-17.5,17.6v0.1c0,9.7,7.9,17.6,17.6,17.5
		C549.9,386.1,557.7,378.2,557.7,368.5z M528.7,368.5v-0.1c0-6.5,4.7-11.9,11.3-11.9s11.4,5.4,11.4,12v0.1c0,6.5-4.7,11.8-11.3,11.8
		S528.7,375,528.7,368.5L528.7,368.5z"/>
	<path class="st2" d="M533.2,412v28.3c0.3,1.6,1.8,2.7,3.5,2.4c1.2-0.2,2.2-1.2,2.4-2.4V412c-0.3-1.6-1.8-2.7-3.5-2.4
		C534.4,409.8,533.4,410.8,533.2,412z"/>
	<path class="st2" d="M711.5,368.6c0,9.7,7.9,17.6,17.6,17.5c9.7,0,17.6-7.9,17.5-17.6l0,0v-0.1c0-9.7-7.9-17.6-17.6-17.5
		c-9.7,0-17.6,7.9-17.5,17.6V368.6z M717.7,368.4c0-6.5,4.7-11.9,11.3-11.9s11.4,5.4,11.4,12v0.1c0,6.5-4.7,11.8-11.3,11.8
		s-11.4-5.4-11.4-11.9V368.4z"/>
	<path class="st2" d="M746.7,253.1V253c0-9.7-7.9-17.6-17.6-17.5s-17.6,7.9-17.5,17.6v0.1c0,9.7,7.9,17.6,17.6,17.5
		C738.9,270.7,746.8,262.8,746.7,253.1L746.7,253.1L746.7,253.1z M717.7,253.1V253c0-6.5,4.7-11.9,11.3-11.9s11.4,5.4,11.4,12v0.1
		c0,6.5-4.7,11.8-11.3,11.8S717.7,259.7,717.7,253.1L717.7,253.1z"/>
	<path class="st2" d="M729.1,501.2c9.5,0.2,17.4-7.3,17.6-16.8c0-0.2,0-0.4,0-0.6v-0.1c0-9.7-7.9-17.6-17.6-17.5
		c-9.7,0-17.6,7.9-17.5,17.6v0.1c-0.1,9.4,7.4,17.2,16.9,17.3C728.6,501.2,728.9,501.2,729.1,501.2z M717.8,483.7
		c0-6.5,4.7-11.9,11.3-11.9s11.4,5.4,11.4,12v0.1c0,6.5-4.7,11.8-11.3,11.8s-11.4-5.4-11.4-11.9V483.7z"/>
	<path class="st2" d="M702.5,324.9v-28.3c-0.3-1.6-1.8-2.7-3.5-2.4c-1.2,0.2-2.2,1.2-2.4,2.4v28.3c0.3,1.6,1.8,2.7,3.5,2.4
		C701.3,327.2,702.3,326.2,702.5,324.9L702.5,324.9z"/>
	<path class="st2" d="M696.6,527.3v28.3c0.3,1.6,1.8,2.7,3.5,2.4c1.2-0.2,2.2-1.2,2.4-2.4v-28.3c-0.3-1.6-1.8-2.7-3.5-2.4
		C697.8,525.1,696.8,526.1,696.6,527.3z"/>
	<path class="st2" d="M762.6,440.3V412c-0.3-1.6-1.8-2.7-3.5-2.4c-1.2,0.2-2.2,1.2-2.4,2.4v28.3c0.3,1.6,1.8,2.7,3.5,2.4
		C761.4,442.5,762.4,441.5,762.6,440.3L762.6,440.3z"/>
	<path class="st2" d="M756.7,209.6c0.3,1.6,1.8,2.7,3.5,2.4c1.2-0.2,2.2-1.2,2.4-2.4V191h-5.9V209.6z"/>
	<path class="st2" d="M701.7,191h-6.4c-0.4,1.4-0.6,2.9-0.6,4.4v0.1c0,9.7,7.9,17.6,17.6,17.5c9.7,0,17.6-7.9,17.5-17.6v-0.1
		c0-1.5-0.2-2.9-0.5-4.3H723c0.5,1.4,0.8,2.9,0.8,4.4v0.1c0,6.5-4.7,11.8-11.3,11.8S701,202,701,195.5v-0.1
		C701,193.9,701.2,192.4,701.7,191z"/>
	<path class="st2" d="M686.7,483.8v-0.1c0-9.7-7.9-17.6-17.6-17.5c-9.7,0-17.6,7.9-17.5,17.6v0.1c0,9.7,7.9,17.6,17.6,17.5
		C678.8,501.4,686.7,493.5,686.7,483.8L686.7,483.8z M657.7,483.8v-0.1c0-6.5,4.7-11.9,11.3-11.9s11.4,5.4,11.4,12v0.1
		c0,6.5-4.7,11.8-11.3,11.8S657.7,490.4,657.7,483.8L657.7,483.8z"/>
	<path class="st2" d="M764.4,310.7c0-9.7-7.9-17.6-17.6-17.5c-9.7,0-17.6,7.9-17.5,17.6v0.1c0,9.7,7.9,17.6,17.6,17.5
		c9.7,0,17.6-7.9,17.5-17.6l0,0V310.7z M758.2,310.9c0,6.5-4.7,11.8-11.3,11.8s-11.4-5.4-11.4-11.9v-0.1c0-6.5,4.7-11.9,11.3-11.9
		S758.2,304.3,758.2,310.9L758.2,310.9z"/>
	<path class="st2" d="M975.9,391.4H1150c8.8,0,16,7.2,16,16V532l0,0H959.9l0,0V407.4C959.9,398.5,967.1,391.4,975.9,391.4z"/>
	<path class="st2" d="M1166,534H959.9c-1.1,0-2-0.9-2-2V407.3c0-9.9,8.1-18,18-18H1150c9.9,0,18,8.1,18,18V532
		C1168,533.1,1167.1,534,1166,534z M961.9,530H1164V407.3c0-7.7-6.3-14-14-14H975.9c-7.7,0-14,6.3-14,14L961.9,530z"/>
	<path class="st2" d="M761,319.5c-0.5,0-0.9,0-1.4,0c5.2-29.1-14.2-57-43.3-62.2c-23.5-4.2-47,7.7-57.6,29.2
		c-20-4.4-39.8,8.2-44.2,28.2c-1.5,6.8-1.1,13.9,1.3,20.4c-14.3-2.6-28,6.8-30.6,21s6.8,28,21,30.6c1.6,0.3,3.2,0.4,4.8,0.4h150
		c18.7-0.3,33.6-15.7,33.2-34.4C793.9,334.6,779.2,319.9,761,319.5L761,319.5z"/>
	<path class="st2" d="M761,389.2H611c-15.6,0-28.2-12.6-28.2-28.2s12.6-28.2,28.2-28.2c0.7,0,1.3,0,2,0.1
		c-5.6-20.8,6.8-42.2,27.7-47.8c5.5-1.5,11.3-1.7,17-0.7c14.3-27.2,47.9-37.6,75.1-23.2c20.6,10.9,32.3,33.4,29.2,56.5
		c19.8,0.6,35.3,17.2,34.6,37C795.9,373.7,780.2,389,761,389.2L761,389.2z M611,336.7c-13.4,0-24.2,10.9-24.2,24.3
		c0,13.4,10.9,24.2,24.2,24.2h150c17.6-0.3,31.6-14.8,31.3-32.4c-0.3-17.1-14.1-30.9-31.3-31.3c-0.4,0-0.9,0-1.3,0
		c-0.6,0-1.2-0.2-1.6-0.7c-0.4-0.5-0.6-1.1-0.5-1.7c5-28-13.7-54.8-41.8-59.8c-3-0.5-6-0.8-9.1-0.8c-19.7-0.1-37.6,11.1-46.3,28.8
		c-0.4,0.8-1.3,1.3-2.2,1.1c-18.9-4.2-37.6,7.8-41.8,26.7c-1.4,6.4-1,13.1,1.2,19.3c0.4,1-0.2,2.2-1.2,2.6c-0.3,0.1-0.7,0.1-1,0.1
		C614,336.8,612.5,336.7,611,336.7z"/>
	<path class="st2" d="M681.5,342.4c7.2-7.2,18.9-7.2,26.2,0"/>
	<path class="st2" d="M681.5,344.4c-1.1,0-2-0.9-2-2c0-0.5,0.2-1,0.6-1.4c8-8,21-8,29,0c0.8,0.8,0.8,2,0,2.8c-0.8,0.8-2,0.8-2.8,0
		l0,0c-6.4-6.4-16.9-6.4-23.3,0c0,0,0,0,0,0C682.6,344.2,682.1,344.4,681.5,344.4z"/>
	<path class="st2" d="M672.5,333.3c12.2-12.2,32-12.2,44.2,0c0,0,0,0,0,0"/>
	<path class="st2" d="M672.5,335.3c-1.1,0-2-0.9-2-2c0-0.5,0.2-1,0.6-1.4c13-13,34.1-13,47.1,0c0,0,0,0,0,0c0.8,0.8,0.8,2,0,2.8
		s-2,0.8-2.8,0l0,0c-11.4-11.4-30-11.4-41.4,0c0,0,0,0,0,0C673.5,335.1,673,335.3,672.5,335.3z"/>
	<path class="st2" d="M661.7,322.5c18.2-18.2,47.6-18.2,65.8,0"/>
	<path class="st2" d="M661.7,324.5c-1.1,0-2-0.9-2-2c0-0.5,0.2-1,0.6-1.4c18.9-18.9,49.7-18.9,68.6,0c0.8,0.8,0.8,2,0,2.8
		c-0.8,0.8-2,0.8-2.8,0l0,0c-17.4-17.4-45.6-17.4-63,0c0,0,0,0,0,0C662.7,324.3,662.2,324.5,661.7,324.5z"/>
	<circle class="st2" cx="694.6" cy="355.4" r="5.7"/>
	<path class="st2" d="M694.6,363.2c-4.3,0-7.7-3.5-7.7-7.7s3.5-7.7,7.7-7.7c4.3,0,7.7,3.5,7.7,7.7
		C702.3,359.7,698.9,363.2,694.6,363.2z M694.6,351.7c-2.1,0-3.7,1.7-3.7,3.7c0,2.1,1.7,3.7,3.7,3.7c2.1,0,3.7-1.7,3.7-3.7
		C698.4,353.4,696.7,351.7,694.6,351.7L694.6,351.7z"/>
	<path class="st2" d="M1013.4,428v154c0,5.5-4.5,10-10,10H759.7c-5.5,0-10-4.5-10-10V428"/>
	<path class="st2" d="M1003.4,594H759.7c-6.6,0-12-5.4-12-12V428c0-1.1,0.9-2,2-2c1.1,0,2,0.9,2,2v154c0,4.4,3.6,8,8,8h243.7
		c4.4,0,8-3.6,8-8V428c0-1.1,0.9-2,2-2s2,0.9,2,2v154C1015.4,588.6,1010.1,594,1003.4,594z"/>
	<path class="st2" d="M759.7,409h243.7c5.5,0,10,4.5,10,10V573c0,5.5-4.5,10-10,10H759.7c-5.5,0-10-4.5-10-10V419
		C749.7,413.4,754.2,409,759.7,409z"/>
	<path class="st2" d="M1003.4,585H759.7c-6.6,0-12-5.4-12-12V419c0-6.6,5.4-12,12-12h243.7c6.6,0,12,5.4,12,12v154
		C1015.4,579.6,1010.1,585,1003.4,585z M759.7,411c-4.4,0-8,3.6-8,8v154c0,4.4,3.6,8,8,8h243.7c4.4,0,8-3.6,8-8V419c0-4.4-3.6-8-8-8
		H759.7z"/>
	<path class="st2" d="M1001.9,234.9H761.2c-6.4,0-11.5,5.2-11.5,11.5v151.1c0,6.4,5.2,11.5,11.5,11.5h240.7
		c6.4,0,11.5-5.2,11.5-11.5V246.4C1013.4,240,1008.3,234.9,1001.9,234.9z"/>
	<path class="st2" d="M1001.9,411H761.2c-7.5,0-13.5-6.1-13.5-13.5V246.4c0-7.5,6.1-13.5,13.5-13.5h240.7c7.5,0,13.5,6.1,13.5,13.5
		v151.1C1015.4,404.9,1009.4,410.9,1001.9,411z M761.2,236.9c-5.2,0-9.5,4.3-9.5,9.5v151.1c0,5.2,4.3,9.5,9.5,9.5h240.7
		c5.2,0,9.5-4.3,9.5-9.5V246.4c0-5.2-4.3-9.5-9.5-9.5L761.2,236.9z"/>
	<polygon class="st2" points="1249.4,568.2 1283.9,468 1294.9,468 1260.5,568.2 	"/>
	<path class="st2" d="M1260.5,570.2h-11c-1.1,0-2-0.9-2-2c0-0.2,0-0.4,0.1-0.6l34.5-100.2c0.3-0.8,1-1.3,1.9-1.4h11c1.1,0,2,0.9,2,2
		c0,0.2,0,0.4-0.1,0.6l-34.4,100.2C1262.1,569.6,1261.3,570.2,1260.5,570.2z M1252.2,566.2h6.8l33.1-96.2h-6.8L1252.2,566.2z"/>
	<path class="st2" d="M1222.3,395.7c-0.8,0.1-1.5-0.6-1.5-1.3c0-0.1,0-0.1,0-0.2v-4.1c0-0.8,0.6-1.5,1.4-1.5c0.1,0,0.1,0,0.2,0h4
		c5,0,7.5-2.5,7.5-8.6v-29.8c0-11.8,1.9-15.5,7.4-17.6v-0.3c-5.5-2.1-7.4-6-7.4-17.6v-29.2c0-6.1-2.5-8.6-7.5-8.6h-4
		c-0.8,0.1-1.5-0.6-1.5-1.3c0-0.1,0-0.1,0-0.2v-4.1c-0.1-0.8,0.6-1.5,1.3-1.5c0.1,0,0.1,0,0.2,0h5.2c9.6,0,14.1,4.7,14.1,16.1v29.8
		c0,9.5,3.4,12.6,8.7,12.9c0.9,0.1,1.5,0.6,1.5,1.5v4.9c0,0.9-0.6,1.4-1.5,1.5c-5.3,0.3-8.7,3.4-8.7,12.9v30.4
		c0,11.3-4.4,16.1-14.1,16.1L1222.3,395.7z"/>
	<path class="st2" d="M1227.5,397.7h-5.2c-1.9,0-3.5-1.5-3.5-3.4c0-0.1,0-0.1,0-0.2v-4.1c0-1.9,1.5-3.5,3.4-3.5c0.1,0,0.1,0,0.2,0h4
		c3.5,0,5.5-1.1,5.5-6.6v-29.8c0-9.9,1.4-14.9,5.5-17.8c-4.1-2.9-5.5-7.9-5.5-17.7v-29.2c0-5.5-2-6.6-5.5-6.6h-4
		c-1.9,0-3.5-1.5-3.5-3.4c0-0.1,0-0.1,0-0.2v-4.1c0-1.9,1.5-3.5,3.4-3.5c0.1,0,0.1,0,0.2,0h5.2c11,0,16.1,5.7,16.1,18.1v29.8
		c0,9.7,3.5,10.7,6.8,10.9h0.2c1.8,0.2,3.2,1.7,3.2,3.5v4.9c0,1.8-1.4,3.3-3.2,3.5h-0.2c-6.3,0.4-6.8,5.8-6.8,10.8v30.5
		C1243.6,392,1238.5,397.7,1227.5,397.7z M1222.3,393.7L1222.3,393.7z M1222.8,393.7h4.7c8.7,0,12.1-3.9,12.1-14.1v-30.5
		c0-9.4,3.3-14.3,10.2-14.8v-4c-6.9-0.6-10.2-5.4-10.2-14.8v-29.9c0-10.1-3.4-14.1-12.1-14.1h-4.7v3.2h3.5c6.3,0,9.5,3.6,9.5,10.6
		v29.2c0,11.4,1.9,14.1,6.2,15.7c0.8,0.3,1.3,1,1.3,1.9v0.3c0,0.8-0.5,1.6-1.2,1.9c-4.3,1.7-6.2,4.2-6.2,15.7V380
		c0,7-3.2,10.6-9.5,10.6h-3.5L1222.8,393.7z"/>
	<path class="st2" d="M1077.2,262.2v-2c0-1.2,0.5-2.3,1.5-3l35.1-23.7c0.5-0.3,1.1-0.2,1.4,0.3c0.2,0.2,0.2,0.5,0.1,0.8v5.4
		c0.1,1.2-0.5,2.4-1.5,3l-25.6,18.1v0.3l25.6,18.1c1,0.6,1.6,1.8,1.5,3v5.4c0.1,0.5-0.2,1.1-0.7,1.2c-0.3,0.1-0.6,0-0.8-0.1
		l-35.1-23.7C1077.6,264.6,1077,263.4,1077.2,262.2z"/>
	<path class="st2" d="M1114.3,291c-0.4,0-0.8-0.1-1.2-0.2c-0.2-0.1-0.3-0.1-0.5-0.2l-35.1-23.7c-1.7-0.9-2.6-2.8-2.4-4.7v-2
		c0-1.8,0.8-3.6,2.4-4.6l35.2-23.7c0.2-0.1,0.3-0.2,0.5-0.2c1.5-0.6,3.3,0.1,3.9,1.6c0.2,0.4,0.3,0.9,0.2,1.4v5.4
		c0.1,1.9-0.9,3.7-2.5,4.7l-23.3,16.6l23.3,16.5c1.6,1,2.6,2.8,2.5,4.7v5.4c0,1-0.4,2-1.2,2.6C1115.6,290.8,1115,291,1114.3,291z
		 M1113.3,236.2l-33.5,22.6c-0.4,0.3-0.7,0.8-0.7,1.3v2c0,0.9,0,0.9,0.6,1.3l0.1,0.1l33.5,22.6v-3.7c0-0.4-0.1-0.8-0.3-1.2
		c-0.1-0.1-0.2-0.1-0.3-0.2l-25.6-18.1c-0.5-0.4-0.8-1-0.8-1.6v-0.3c0-0.6,0.3-1.3,0.8-1.6l25.6-18.1c0.1-0.1,0.2-0.2,0.4-0.2
		c0.2-0.3,0.3-0.7,0.3-1.1L1113.3,236.2z"/>
	<path class="st2" d="M511.3,509.3v2c0,1.2-0.5,2.3-1.5,3L474.6,538c-0.5,0.3-1.1,0.2-1.4-0.3c-0.2-0.2-0.2-0.5-0.1-0.8v-5.4
		c-0.1-1.2,0.5-2.4,1.5-3l25.6-18.1v-0.3L474.6,492c-1-0.6-1.6-1.8-1.5-3v-5.4c-0.1-0.5,0.2-1.1,0.7-1.2c0.3-0.1,0.6,0,0.8,0.1
		l35.1,23.7C510.8,506.8,511.4,508.1,511.3,509.3z"/>
	<path class="st2" d="M474.1,540c-0.6,0-1.2-0.2-1.7-0.5c-0.8-0.6-1.3-1.6-1.2-2.6v-5.4c-0.1-1.9,0.9-3.7,2.5-4.7l23.4-16.6
		l-23.4-16.5c-1.6-1-2.6-2.8-2.5-4.7v-5.4c-0.1-1.7,1.1-3.1,2.8-3.2c0.5,0,1,0,1.4,0.2c0.2,0.1,0.3,0.1,0.5,0.2l35.1,23.8
		c1.7,0.9,2.6,2.8,2.4,4.7v2c0,1.8-0.8,3.6-2.4,4.6l-35.2,23.7c-0.2,0.1-0.3,0.2-0.5,0.2C474.8,540,474.5,540,474.1,540z
		 M474.6,537.9L474.6,537.9z M475.1,485.2v3.8c0,0.4,0.1,0.8,0.4,1.2c0.1,0.1,0.2,0.1,0.3,0.2l25.6,18.1c0.5,0.4,0.8,1,0.8,1.6v0.3
		c0,0.6-0.3,1.3-0.8,1.6l-25.6,18.2c-0.1,0.1-0.2,0.2-0.4,0.2c-0.2,0.3-0.3,0.7-0.3,1.2v3.7l33.5-22.6c0.4-0.3,0.7-0.8,0.6-1.3v-2
		c0-0.9,0-0.9-0.6-1.3l-0.1-0.1L475.1,485.2z"/>
	<path class="st2" d="M510.7,236.2c0.8-0.1,1.5,0.6,1.5,1.3c0,0.1,0,0.1,0,0.2v4.1c0,0.8-0.6,1.5-1.4,1.5c-0.1,0-0.1,0-0.2,0h-4
		c-5,0-7.5,2.4-7.5,8.6v29.8c0,11.8-1.9,15.5-7.4,17.6v0.3c5.5,2.1,7.4,6,7.4,17.6v29.2c0,6.1,2.5,8.6,7.5,8.6h4
		c0.8-0.1,1.5,0.6,1.5,1.3c0,0.1,0,0.1,0,0.2v4.1c0.1,0.8-0.6,1.5-1.3,1.5c-0.1,0-0.1,0-0.2,0h-5.2c-9.6,0-14.1-4.7-14.1-16.1v-29.8
		c0-9.5-3.4-12.6-8.7-12.9c-0.9-0.1-1.5-0.6-1.5-1.5V297c0-0.9,0.6-1.4,1.5-1.5c5.4-0.3,8.7-3.4,8.7-12.9v-30.4
		c0-11.3,4.4-16.1,14.1-16.1H510.7z"/>
	<path class="st2" d="M510.7,364.2h-5.2c-11,0-16.1-5.7-16.1-18.1v-29.8c0-9.7-3.5-10.7-6.8-10.9h-0.2c-1.8-0.2-3.2-1.7-3.2-3.5
		v-4.9c0-1.8,1.4-3.3,3.2-3.5h0.2c6.3-0.4,6.8-5.8,6.8-10.9v-30.5c0-12.3,5.1-18.1,16.1-18.1h5.2c1.9,0,3.5,1.5,3.5,3.4
		c0,0.1,0,0.1,0,0.2v4.1c0,1.9-1.5,3.5-3.4,3.5c-0.1,0-0.1,0-0.2,0h-4c-3.5,0-5.5,1.1-5.5,6.6v29.8c0,9.9-1.4,14.9-5.4,17.8
		c4.1,2.9,5.4,7.9,5.4,17.7v29.2c0,5.5,2,6.6,5.5,6.6h4c1.9,0,3.5,1.5,3.5,3.4c0,0.1,0,0.1,0,0.2v4.1c0.1,1.9-1.5,3.5-3.4,3.5
		C510.8,364.2,510.7,364.2,510.7,364.2z M483.2,301.5c6.9,0.5,10.2,5.4,10.2,14.8v29.8c0,10.1,3.4,14.1,12.1,14.1h4.7V357h-3.5
		c-6.3,0-9.5-3.6-9.5-10.6v-29.2c0-11.4-1.9-14.1-6.2-15.7c-0.8-0.3-1.3-1-1.3-1.9v-0.3c0-0.8,0.5-1.6,1.3-1.9
		c4.4-1.7,6.2-4.2,6.2-15.7v-29.8c0-7,3.2-10.6,9.5-10.6h3.5v-3.2h-4.7c-8.7,0-12.1,3.9-12.1,14.1v30.4c0,9.4-3.4,14.3-10.2,14.8
		V301.5z M510.7,238.1L510.7,238.1L510.7,238.1z"/>
	<path class="st2" d="M641.2,521.1c-0.7,0-1.4-0.5-1.4-1.3c0-0.1,0-0.1,0-0.2v-3.9c0-0.7,0.5-1.4,1.3-1.4c0.1,0,0.1,0,0.2,0h16.2
		c0.4,0.1,0.8-0.2,0.9-0.6c0-0.1,0-0.1,0-0.2V454c0.1-0.4-0.2-0.8-0.6-0.9c-0.1,0-0.1,0-0.2,0h-16.2c-0.7,0-1.4-0.5-1.4-1.3
		c0-0.1,0-0.1,0-0.2v-3.9c0-0.7,0.5-1.4,1.3-1.4c0.1,0,0.1,0,0.2,0h23.2c0.7,0,1.4,0.5,1.4,1.3c0,0.1,0,0.1,0,0.2v71.8
		c0,0.7-0.5,1.4-1.3,1.4c-0.1,0-0.1,0-0.2,0H641.2z"/>
	<path class="st2" d="M664.4,523.1h-23.2c-1.9,0-3.4-1.4-3.4-3.3c0-0.1,0-0.1,0-0.2v-3.9c0-1.9,1.4-3.4,3.3-3.4c0.1,0,0.1,0,0.2,0
		h15.1v-57.1h-15.1c-1.9,0-3.4-1.4-3.4-3.3c0-0.1,0-0.1,0-0.2v-3.9c0-1.9,1.4-3.4,3.3-3.4c0.1,0,0.1,0,0.2,0h23.2
		c1.9,0,3.4,1.4,3.4,3.3c0,0,0,0.1,0,0.1v71.8c0,1.9-1.4,3.4-3.3,3.4C664.5,523.1,664.4,523.1,664.4,523.1z M641.8,519.1h22v-70.7
		h-22v2.8h15.7c1.5-0.1,2.8,1.1,2.9,2.6c0,0.1,0,0.2,0,0.2v59.4c0.1,1.5-1.1,2.8-2.6,2.9c-0.1,0-0.2,0-0.2,0h-15.7L641.8,519.1z"/>
	<path class="st1" d="M1023.5,417.9V572c0,5.5-4.5,10-10,10H769.7c-5.5,0-10-4.5-10-10V417.9"/>
	<path class="st3" d="M1013.5,584H769.7c-6.6,0-12-5.4-12-12V418c0-1.1,0.9-2,2-2c1.1,0,2,0.9,2,2v154c0,4.4,3.6,8,8,8h243.7
		c4.4,0,8-3.6,8-8V418c0-1.1,0.9-2,2-2s2,0.9,2,2v154C1025.5,578.6,1020.1,584,1013.5,584z"/>
	<path class="st1" d="M769.7,398.9h243.7c5.5,0,10,4.5,10,10V563c0,5.5-4.5,10-10,10H769.7c-5.5,0-10-4.5-10-10V408.9
		C759.7,403.4,764.2,398.9,769.7,398.9z"/>
	<path class="st3" d="M1013.5,575H769.7c-6.6,0-12-5.4-12-12V408.9c0-6.6,5.4-12,12-12h243.7c6.6,0,12,5.4,12,12V563
		C1025.5,569.6,1020.1,575,1013.5,575z M769.7,400.9c-4.4,0-8,3.6-8,8V563c0,4.4,3.6,8,8,8h243.7c4.4,0,8-3.6,8-8V408.9
		c0-4.4-3.6-8-8-8H769.7z"/>
	<path class="st1" d="M1011.9,224.9H771.2c-6.4,0-11.5,5.2-11.5,11.5v151.1c0,6.4,5.2,11.5,11.5,11.5h240.7
		c6.4,0,11.5-5.2,11.5-11.5V236.4C1023.4,230,1018.3,224.9,1011.9,224.9z"/>
	<path class="st3" d="M1011.9,400.9H771.2c-7.5,0-13.5-6.1-13.5-13.5V236.4c0-7.5,6.1-13.5,13.5-13.5h240.7
		c7.5,0,13.5,6.1,13.5,13.5v151.1C1025.4,394.9,1019.4,400.9,1011.9,400.9z M771.2,226.8c-5.2,0-9.5,4.3-9.5,9.5v151.1
		c0,5.2,4.3,9.5,9.5,9.5h240.7c5.2,0,9.5-4.3,9.5-9.5V236.4c0-5.2-4.3-9.5-9.5-9.5L771.2,226.8z"/>
	<path class="st4" d="M1014.2,236.4v151.1c0,1.3-1,2.3-2.3,2.3H771.2c-1.3,0-2.3-1-2.3-2.3V236.4c0-1.3,1-2.3,2.3-2.3h240.7
		C1013.2,234.1,1014.2,235.1,1014.2,236.4z"/>
	<path class="st3" d="M994.2,410.1H789c-1.1,0-2-0.9-2-2v-9.2c0-1.1,0.9-2,2-2h205.2c1.1,0,2,0.9,2,2v9.2
		C996.2,409.3,995.3,410.1,994.2,410.1z M791,406.1h201.2v-5.2H791V406.1z"/>
	<path class="st3" d="M919.7,559.8h-62.3c-3.3,0-6-2.7-6-6v-33.3c0-3.3,2.7-6,6-6h62.3c3.3,0,6,2.7,6,6v33.3
		C925.7,557.2,923,559.8,919.7,559.8L919.7,559.8z M857.4,518.5c-1.1,0-2,0.9-2,2v33.3c0,1.1,0.9,2,2,2h62.3c1.1,0,2-0.9,2-2v-33.3
		c0-1.1-0.9-2-2-2L857.4,518.5z"/>
	<path class="st3" d="M782.8,437.6h-11.3c-1.1,0-2-0.9-2-2v-11.3c0-1.1,0.9-2,2-2h11.3c1.1,0,2,0.9,2,2v11.3
		C784.8,436.7,783.9,437.6,782.8,437.6z M773.5,433.6h7.3v-7.3h-7.3V433.6z"/>
	<path class="st3" d="M804.2,437.6h-11.3c-1.1,0-2-0.9-2-2v-11.3c0-1.1,0.9-2,2-2h11.3c1.1,0,2,0.9,2,2v11.3
		C806.2,436.7,805.3,437.6,804.2,437.6z M794.9,433.6h7.3v-7.3h-7.3V433.6z"/>
	<path class="st3" d="M825.7,437.6h-11.3c-1.1,0-2-0.9-2-2v-11.3c0-1.1,0.9-2,2-2h11.3c1.1,0,2,0.9,2,2v11.3
		C827.7,436.7,826.8,437.6,825.7,437.6z M816.4,433.6h7.3v-7.3h-7.3V433.6z"/>
	<path class="st3" d="M847.1,437.6h-11.3c-1.1,0-2-0.9-2-2v-11.3c0-1.1,0.9-2,2-2h11.3c1.1,0,2,0.9,2,2v11.3
		C849.1,436.7,848.2,437.6,847.1,437.6z M837.8,433.6h7.3v-7.3h-7.3V433.6z"/>
	<path class="st3" d="M868.6,437.6h-11.3c-1.1,0-2-0.9-2-2v-11.3c0-1.1,0.9-2,2-2h11.3c1.1,0,2,0.9,2,2v11.3
		C870.6,436.7,869.7,437.6,868.6,437.6z M859.3,433.6h7.3v-7.3h-7.3V433.6z"/>
	<path class="st3" d="M890,437.6h-11.3c-1.1,0-2-0.9-2-2v-11.3c0-1.1,0.9-2,2-2H890c1.1,0,2,0.9,2,2v11.3
		C892,436.7,891.1,437.6,890,437.6z M880.7,433.6h7.3v-7.3h-7.3V433.6z"/>
	<path class="st3" d="M911.5,437.6h-11.3c-1.1,0-2-0.9-2-2v-11.3c0-1.1,0.9-2,2-2h11.3c1.1,0,2,0.9,2,2v11.3
		C913.5,436.7,912.6,437.6,911.5,437.6z M902.2,433.6h7.3v-7.3h-7.3V433.6z"/>
	<path class="st3" d="M932.9,437.6h-11.3c-1.1,0-2-0.9-2-2v-11.3c0-1.1,0.9-2,2-2h11.3c1.1,0,2,0.9,2,2v11.3
		C934.9,436.7,934,437.6,932.9,437.6z M923.6,433.6h7.3v-7.3h-7.3V433.6z"/>
	<path class="st3" d="M954.4,437.6h-11.3c-1.1,0-2-0.9-2-2v-11.3c0-1.1,0.9-2,2-2h11.3c1.1,0,2,0.9,2,2v11.3
		C956.4,436.7,955.5,437.6,954.4,437.6z M945.1,433.6h7.3v-7.3h-7.3V433.6z"/>
	<path class="st3" d="M975.8,437.6h-11.3c-1.1,0-2-0.9-2-2v-11.3c0-1.1,0.9-2,2-2h11.3c1.1,0,2,0.9,2,2v11.3
		C977.8,436.7,976.9,437.6,975.8,437.6z M966.5,433.6h7.3v-7.3h-7.3V433.6z"/>
	<path class="st3" d="M1008.2,437.6h-21.7c-1.1,0-2-0.9-2-2v-11.3c0-1.1,0.9-2,2-2h21.7c1.1,0,2,0.9,2,2v11.3
		C1010.2,436.7,1009.3,437.6,1008.2,437.6z M988.5,433.6h17.7v-7.3h-17.7L988.5,433.6z"/>
	<path class="st3" d="M791.2,481.1h-19.3c-1.1,0-2-0.9-2-2v-11.3c0-1.1,0.9-2,2-2h19.3c1.1,0,2,0.9,2,2v11.3
		C793.2,480.2,792.3,481.1,791.2,481.1L791.2,481.1z M773.9,477.1h15.3v-7.3h-15.3V477.1z"/>
	<path class="st3" d="M812.2,481.1h-11.3c-1.1,0-2-0.9-2-2v-11.3c0-1.1,0.9-2,2-2h11.3c1.1,0,2,0.9,2,2v11.3
		C814.2,480.2,813.3,481.1,812.2,481.1C812.2,481.1,812.2,481.1,812.2,481.1z M802.9,477.1h7.3v-7.3h-7.3V477.1z"/>
	<path class="st3" d="M832.8,481.1h-11.3c-1.1,0-2-0.9-2-2v-11.3c0-1.1,0.9-2,2-2h11.3c1.1,0,2,0.9,2,2v11.3
		C834.8,480.2,833.9,481.1,832.8,481.1C832.8,481.1,832.8,481.1,832.8,481.1z M823.5,477.1h7.3v-7.3h-7.3V477.1z"/>
	<path class="st3" d="M853.3,481.1H842c-1.1,0-2-0.9-2-2v-11.3c0-1.1,0.9-2,2-2h11.3c1.1,0,2,0.9,2,2v11.3
		C855.3,480.2,854.5,481.1,853.3,481.1C853.3,481.1,853.3,481.1,853.3,481.1z M844,477.1h7.3v-7.3H844V477.1z"/>
	<path class="st3" d="M873.9,481.1h-11.3c-1.1,0-2-0.9-2-2v-11.3c0-1.1,0.9-2,2-2h11.3c1.1,0,2,0.9,2,2v11.3
		C875.9,480.2,875,481.1,873.9,481.1C873.9,481.1,873.9,481.1,873.9,481.1z M864.6,477.1h7.3v-7.3h-7.3V477.1z"/>
	<path class="st3" d="M894.5,481.1h-11.3c-1.1,0-2-0.9-2-2v-11.3c0-1.1,0.9-2,2-2h11.3c1.1,0,2,0.9,2,2v11.3
		C896.5,480.2,895.6,481.1,894.5,481.1C894.5,481.1,894.5,481.1,894.5,481.1z M885.2,477.1h7.3v-7.3h-7.3V477.1z"/>
	<path class="st3" d="M915,481.1h-11.3c-1.1,0-2-0.9-2-2v-11.3c0-1.1,0.9-2,2-2H915c1.1,0,2,0.9,2,2v11.3
		C917,480.2,916.1,481.1,915,481.1C915,481.1,915,481.1,915,481.1z M905.7,477.1h7.3v-7.3h-7.3V477.1z"/>
	<path class="st3" d="M935.6,481.1h-11.3c-1.1,0-2-0.9-2-2v-11.3c0-1.1,0.9-2,2-2h11.3c1.1,0,2,0.9,2,2v11.3
		C937.6,480.2,936.7,481.1,935.6,481.1C935.6,481.1,935.6,481.1,935.6,481.1z M926.3,477.1h7.3v-7.3h-7.3V477.1z"/>
	<path class="st3" d="M956.1,481.1h-11.3c-1.1,0-2-0.9-2-2v-11.3c0-1.1,0.9-2,2-2h11.3c1.1,0,2,0.9,2,2v11.3
		C958.1,480.2,957.2,481.1,956.1,481.1C956.1,481.1,956.1,481.1,956.1,481.1z M946.8,477.1h7.3v-7.3h-7.3V477.1z"/>
	<path class="st3" d="M976.7,481.1h-11.3c-1.1,0-2-0.9-2-2v-11.3c0-1.1,0.9-2,2-2h11.3c1.1,0,2,0.9,2,2v11.3
		C978.7,480.2,977.8,481.1,976.7,481.1C976.7,481.1,976.7,481.1,976.7,481.1z M967.4,477.1h7.3v-7.3h-7.3V477.1z"/>
	<path class="st3" d="M1008.2,481.1h-21.7c-1.1,0-2-0.9-2-2v-11.3c0-1.1,0.9-2,2-2h21.7c1.1,0,2,0.9,2,2v11.3
		C1010.2,480.2,1009.3,481.1,1008.2,481.1C1008.2,481.1,1008.2,481.1,1008.2,481.1z M988.5,477.1h17.7v-7.3h-17.7L988.5,477.1z"/>
	<path class="st3" d="M782.8,459.3h-11.3c-1.1,0-2-0.9-2-2V446c0-1.1,0.9-2,2-2h11.3c1.1,0,2,0.9,2,2v11.3
		C784.8,458.4,783.9,459.3,782.8,459.3C782.8,459.3,782.8,459.3,782.8,459.3z M773.5,455.3h7.3V448h-7.3V455.3z"/>
	<path class="st3" d="M803.3,459.3H792c-1.1,0-2-0.9-2-2V446c0-1.1,0.9-2,2-2h11.3c1.1,0,2,0.9,2,2v11.3
		C805.3,458.4,804.4,459.3,803.3,459.3C803.3,459.3,803.3,459.3,803.3,459.3z M794,455.3h7.3V448H794L794,455.3z"/>
	<path class="st3" d="M823.9,459.3h-11.3c-1.1,0-2-0.9-2-2V446c0-1.1,0.9-2,2-2h11.3c1.1,0,2,0.9,2,2v11.3
		C825.9,458.4,825,459.3,823.9,459.3C823.9,459.3,823.9,459.3,823.9,459.3z M814.6,455.3h7.3V448h-7.3V455.3z"/>
	<path class="st3" d="M844.4,459.3h-11.3c-1.1,0-2-0.9-2-2V446c0-1.1,0.9-2,2-2h11.3c1.1,0,2,0.9,2,2v11.3
		C846.4,458.4,845.6,459.3,844.4,459.3C844.4,459.3,844.4,459.3,844.4,459.3z M835.1,455.3h7.3V448h-7.3V455.3z"/>
	<path class="st3" d="M865,459.3h-11.3c-1.1,0-2-0.9-2-2V446c0-1.1,0.9-2,2-2H865c1.1,0,2,0.9,2,2v11.3
		C867,458.4,866.1,459.3,865,459.3C865,459.3,865,459.3,865,459.3z M855.7,455.3h7.3V448h-7.3V455.3z"/>
	<path class="st3" d="M885.5,459.3h-11.3c-1.1,0-2-0.9-2-2V446c0-1.1,0.9-2,2-2h11.3c1.1,0,2,0.9,2,2v11.3
		C887.5,458.4,886.6,459.3,885.5,459.3C885.5,459.3,885.5,459.3,885.5,459.3z M876.2,455.3h7.3V448h-7.3V455.3z"/>
	<path class="st3" d="M906,459.3h-11.3c-1.1,0-2-0.9-2-2V446c0-1.1,0.9-2,2-2H906c1.1,0,2,0.9,2,2v11.3
		C908,458.4,907.1,459.3,906,459.3C906,459.3,906,459.3,906,459.3z M896.7,455.3h7.3V448h-7.3V455.3z"/>
	<path class="st3" d="M926.6,459.3h-11.3c-1.1,0-2-0.9-2-2V446c0-1.1,0.9-2,2-2h11.3c1.1,0,2,0.9,2,2v11.3
		C928.6,458.4,927.7,459.3,926.6,459.3C926.6,459.3,926.6,459.3,926.6,459.3z M917.3,455.3h7.3V448h-7.3V455.3z"/>
	<path class="st3" d="M947.1,459.3h-11.3c-1.1,0-2-0.9-2-2V446c0-1.1,0.9-2,2-2h11.3c1.1,0,2,0.9,2,2v11.3
		C949.2,458.4,948.3,459.3,947.1,459.3C947.2,459.3,947.2,459.3,947.1,459.3z M937.8,455.3h7.3V448h-7.3V455.3z"/>
	<path class="st3" d="M967.7,459.3h-11.3c-1.1,0-2-0.9-2-2V446c0-1.1,0.9-2,2-2h11.3c1.1,0,2,0.9,2,2v11.3
		C969.7,458.4,968.8,459.3,967.7,459.3C967.7,459.3,967.7,459.3,967.7,459.3z M958.4,455.3h7.3V448h-7.3V455.3z"/>
	<path class="st3" d="M988.2,459.3h-11.3c-1.1,0-2-0.9-2-2V446c0-1.1,0.9-2,2-2h11.3c1.1,0,2,0.9,2,2v11.3
		C990.3,458.4,989.4,459.3,988.2,459.3C988.3,459.3,988.2,459.3,988.2,459.3z M978.9,455.3h7.3V448h-7.3V455.3z"/>
	<path class="st3" d="M1008.8,459.3h-11.3c-1.1,0-2-0.9-2-2V446c0-1.1,0.9-2,2-2h11.3c1.1,0,2,0.9,2,2v11.3
		C1010.8,458.4,1009.9,459.3,1008.8,459.3C1008.8,459.3,1008.8,459.3,1008.8,459.3z M999.5,455.3h7.3V448h-7.3V455.3z"/>
	<path class="st3" d="M782.8,502.9h-11.3c-1.1,0-2-0.9-2-2v-11.3c0-1.1,0.9-2,2-2h11.3c1.1,0,2,0.9,2,2v11.3
		C784.8,502,783.9,502.9,782.8,502.9z M773.5,498.9h7.3v-7.3h-7.3V498.9z"/>
	<path class="st3" d="M802.6,502.9h-11.3c-1.1,0-2-0.9-2-2v-11.3c0-1.1,0.9-2,2-2h11.3c1.1,0,2,0.9,2,2v11.3
		C804.6,502,803.7,502.9,802.6,502.9z M793.3,498.9h7.3v-7.3h-7.3V498.9z"/>
	<path class="st3" d="M822.4,502.9h-11.3c-1.1,0-2-0.9-2-2v-11.3c0-1.1,0.9-2,2-2h11.3c1.1,0,2,0.9,2,2v11.3
		C824.4,502,823.5,502.9,822.4,502.9z M813.1,498.9h7.3v-7.3h-7.3V498.9z"/>
	<path class="st3" d="M842.2,502.9h-11.3c-1.1,0-2-0.9-2-2v-11.3c0-1.1,0.9-2,2-2h11.3c1.1,0,2,0.9,2,2v11.3
		C844.2,502,843.3,502.9,842.2,502.9z M832.9,498.9h7.3v-7.3h-7.3V498.9z"/>
	<path class="st3" d="M944,502.9h-11.3c-1.1,0-2-0.9-2-2v-11.3c0-1.1,0.9-2,2-2H944c1.1,0,2,0.9,2,2v11.3
		C946,502,945.1,502.9,944,502.9z M934.7,498.9h7.3v-7.3h-7.3V498.9z"/>
	<path class="st3" d="M963.8,502.9h-11.3c-1.1,0-2-0.9-2-2v-11.3c0-1.1,0.9-2,2-2h11.3c1.1,0,2,0.9,2,2v11.3
		C965.8,502,965,502.9,963.8,502.9z M954.5,498.9h7.3v-7.3h-7.3V498.9z"/>
	<path class="st3" d="M1007.5,502.9h-33.9c-1.1,0-2-0.9-2-2v-5.6c0-1.1,0.9-2,2-2h9.3v-3.6c0-1.1,0.9-2,2-2h11.3c1.1,0,2,0.9,2,2
		v3.6h9.3c1.1,0,2,0.9,2,2v5.6C1009.5,502,1008.6,502.9,1007.5,502.9z M975.6,498.9h29.9v-1.6h-9.3c-1.1,0-2-0.9-2-2v-3.6h-7.3v3.6
		c0,1.1-0.9,2-2,2h-9.3L975.6,498.9z"/>
	<path class="st3" d="M921.1,502.9h-67.3c-1.1,0-2-0.9-2-2v-11.3c0-1.1,0.9-2,2-2h67.3c1.1,0,2,0.9,2,2v11.3
		C923.1,502,922.2,502.9,921.1,502.9z M855.8,498.9h63.3v-7.3h-63.3L855.8,498.9z"/>
	<path class="st1" d="M770.9,234.1h241.3c1.1,0,2,0.9,2,2v11.5l0,0H768.9l0,0v-11.5C768.9,235,769.8,234.1,770.9,234.1z"/>
	<path class="st3" d="M1014.2,249.6H768.9c-1.1,0-2-0.9-2-2v-11.5c0-2.2,1.8-4,4-4h241.3c2.2,0,4,1.8,4,4v11.5
		C1016.2,248.7,1015.3,249.6,1014.2,249.6z M770.9,245.6h241.3v-9.5H770.9V245.6z"/>
	<path class="st3" d="M1011.9,391.7H771.2c-2.4,0-4.3-1.9-4.3-4.3V236.4c0-2.4,1.9-4.3,4.3-4.3h240.7c2.4,0,4.3,1.9,4.3,4.3v151.1
		C1016.2,389.8,1014.3,391.7,1011.9,391.7z M771.2,236.1c-0.2,0-0.3,0.1-0.3,0.3v151.1c0,0.2,0.1,0.3,0.3,0.3h240.7
		c0.2,0,0.3-0.1,0.3-0.3V236.4c0-0.2-0.1-0.3-0.3-0.3H771.2z"/>
	<path class="st3" d="M823.1,391.7c-1.1,0-2-0.9-2-2V247.6c0-1.1,0.9-2,2-2s2,0.9,2,2v142.2C825.1,390.8,824.2,391.7,823.1,391.7z"
		/>
	<path class="st3" d="M815.1,261.9h-35c-1.1,0-2-0.9-2-2s0.9-2,2-2h35c1.1,0,2,0.9,2,2S816.2,261.9,815.1,261.9z"/>
	<path class="st3" d="M815.1,275.8h-35c-1.1,0-2-0.9-2-2c0-1.1,0.9-2,2-2h35c1.1,0,2,0.9,2,2C817.1,274.9,816.2,275.8,815.1,275.8z"
		/>
	<path class="st3" d="M815.1,289.6h-35c-1.1,0-2-0.9-2-2c0-1.1,0.9-2,2-2h35c1.1,0,2,0.9,2,2C817.1,288.7,816.2,289.6,815.1,289.6z"
		/>
	<path class="st3" d="M815.1,303.5h-35c-1.1,0-2-0.9-2-2c0-1.1,0.9-2,2-2h35c1.1,0,2,0.9,2,2C817.1,302.6,816.2,303.5,815.1,303.5z"
		/>
	<path class="st3" d="M815.1,317.4h-35c-1.1,0-2-0.9-2-2s0.9-2,2-2h35c1.1,0,2,0.9,2,2S816.2,317.4,815.1,317.4z"/>
	<path class="st3" d="M815.1,331.2h-35c-1.1,0-2-0.9-2-2c0-1.1,0.9-2,2-2h35c1.1,0,2,0.9,2,2C817.1,330.3,816.2,331.2,815.1,331.2z"
		/>
	<path class="st1" d="M839,269.7c-1.1,0-2-0.9-2-2c0-0.5,0.2-1,0.6-1.4l9-9c0.8-0.8,2-0.8,2.8,0s0.8,2,0,2.8l-9,9
		C840,269.5,839.5,269.7,839,269.7z"/>
	<path class="st1" d="M848,278.7c-0.5,0-1-0.2-1.4-0.6l-9-9c-0.8-0.8-0.8-2,0-2.8s2-0.8,2.8,0l9,9c0.8,0.8,0.8,2,0,2.8
		C849,278.5,848.5,278.7,848,278.7L848,278.7z"/>
	<path class="st1" d="M863.5,268.3h-8.2c-1.1,0-2-0.9-2-2c0-1.1,0.9-2,2-2h8.2c1.1,0,2,0.9,2,2C865.5,267.4,864.6,268.3,863.5,268.3
		z"/>
	<path class="st1" d="M900.9,268.3h-29.7c-1.1,0-2-0.9-2-2c0-1.1,0.9-2,2-2h29.7c1.1,0,2,0.9,2,2C902.9,267.4,902,268.3,900.9,268.3
		z"/>
	<path class="st1" d="M919.6,268.3h-10.9c-1.1,0-2-0.9-2-2c0-1.1,0.9-2,2-2h10.9c1.1,0,2,0.9,2,2
		C921.6,267.4,920.7,268.3,919.6,268.3L919.6,268.3z"/>
	<path class="st1" d="M956.3,268.3h-29c-1.1,0-2-0.9-2-2c0-1.1,0.9-2,2-2h29c1.1,0,2,0.9,2,2C958.3,267.4,957.4,268.3,956.3,268.3z"
		/>
	<path class="st1" d="M975.7,268.3h-11.6c-1.1,0-2-0.9-2-2c0-1.1,0.9-2,2-2h11.6c1.1,0,2,0.9,2,2
		C977.7,267.4,976.8,268.3,975.7,268.3z"/>
	<path class="st1" d="M1001.1,268.3h-17.7c-1.1,0-2-0.9-2-2c0-1.1,0.9-2,2-2h17.7c1.1,0,2,0.9,2,2
		C1003.1,267.4,1002.2,268.3,1001.1,268.3L1001.1,268.3z"/>
	<path class="st1" d="M948.2,378.5c-1.1,0-2-0.9-2-2c0-0.5,0.2-1,0.6-1.4l9-9c0.8-0.8,2-0.8,2.8,0c0.8,0.8,0.8,2,0,2.8l-9,9
		C949.2,378.3,948.7,378.5,948.2,378.5z"/>
	<path class="st1" d="M957.2,369.5c-0.5,0-1-0.2-1.4-0.6l-9-9c-0.8-0.8-0.8-2,0-2.8c0.8-0.8,2-0.8,2.8,0l9,9c0.8,0.8,0.8,2,0,2.8
		C958.2,369.2,957.7,369.5,957.2,369.5L957.2,369.5z"/>
	<path class="st1" d="M928.9,380.3c-1.1,0-2-0.9-2-2c0-0.3,0-0.5,0.1-0.7l8.6-21.6c0.4-1,1.6-1.5,2.6-1.1c1,0.4,1.5,1.6,1.1,2.6
		l-8.6,21.6C930.5,379.8,929.7,380.3,928.9,380.3z"/>
	<path class="st1" d="M861.1,288.7h-18.8c-1.1,0-2-0.9-2-2c0-1.1,0.9-2,2-2h18.8c1.1,0,2,0.9,2,2
		C863.1,287.8,862.2,288.7,861.1,288.7L861.1,288.7z"/>
	<path class="st1" d="M881.8,288.7h-11.6c-1.1,0-2-0.9-2-2c0-1.1,0.9-2,2-2h11.6c1.1,0,2,0.9,2,2
		C883.8,287.8,882.9,288.7,881.8,288.7z"/>
	<path class="st1" d="M927.7,288.7h-36.8c-1.1,0-2-0.9-2-2c0-1.1,0.9-2,2-2h36.8c1.1,0,2,0.9,2,2
		C929.7,287.8,928.8,288.7,927.7,288.7z"/>
	<path class="st1" d="M967.3,288.7h-30.6c-1.1,0-2-0.9-2-2c0-1.1,0.9-2,2-2h30.6c1.1,0,2,0.9,2,2
		C969.3,287.8,968.4,288.7,967.3,288.7z"/>
	<path class="st1" d="M987.6,288.7h-11.3c-1.1,0-2-0.9-2-2c0-1.1,0.9-2,2-2h11.3c1.1,0,2,0.9,2,2
		C989.6,287.8,988.7,288.7,987.6,288.7z"/>
	<path class="st1" d="M876,309.2h-33.7c-1.1,0-2-0.9-2-2s0.9-2,2-2H876c1.1,0,2,0.9,2,2S877.1,309.2,876,309.2z"/>
	<path class="st1" d="M898.9,309.2h-12.5c-1.1,0-2-0.9-2-2s0.9-2,2-2h12.5c1.1,0,2,0.9,2,2S900,309.2,898.9,309.2z"/>
	<path class="st1" d="M934.8,309.2h-25.6c-1.1,0-2-0.9-2-2s0.9-2,2-2h25.6c1.1,0,2,0.9,2,2S935.9,309.2,934.8,309.2z"/>
	<path class="st1" d="M987.6,309.2h-42.4c-1.1,0-2-0.9-2-2s0.9-2,2-2h42.4c1.1,0,2,0.9,2,2S988.7,309.2,987.6,309.2L987.6,309.2z"/>
	<path class="st1" d="M881.8,329.7h-39.4c-1.1,0-2-0.9-2-2c0-1.1,0.9-2,2-2h39.5c1.1,0,2,0.9,2,2
		C883.8,328.8,882.9,329.7,881.8,329.7L881.8,329.7z"/>
	<path class="st1" d="M920.7,329.7h-28.6c-1.1,0-2-0.9-2-2c0-1.1,0.9-2,2-2h28.6c1.1,0,2,0.9,2,2
		C922.7,328.8,921.8,329.7,920.7,329.7z"/>
	<path class="st1" d="M942.4,329.7H931c-1.1,0-2-0.9-2-2c0-1.1,0.9-2,2-2h11.5c1.1,0,2,0.9,2,2C944.5,328.8,943.6,329.7,942.4,329.7
		L942.4,329.7z"/>
	<path class="st1" d="M987.6,329.7h-34.9c-1.1,0-2-0.9-2-2c0-1.1,0.9-2,2-2h34.9c1.1,0,2,0.9,2,2
		C989.6,328.8,988.7,329.7,987.6,329.7z"/>
	<path class="st1" d="M856.5,350.2h-14.1c-1.1,0-2-0.9-2-2s0.9-2,2-2h14.1c1.1,0,2,0.9,2,2S857.6,350.2,856.5,350.2L856.5,350.2z"/>
	<path class="st1" d="M894.5,350.2h-30.5c-1.1,0-2-0.9-2-2s0.9-2,2-2h30.5c1.1,0,2,0.9,2,2S895.6,350.2,894.5,350.2z"/>
	<path class="st1" d="M937.9,350.2h-36c-1.1,0-2-0.9-2-2s0.9-2,2-2h36c1.1,0,2,0.9,2,2S939,350.2,937.9,350.2z"/>
	<path class="st1" d="M959.8,350.2h-14.5c-1.1,0-2-0.9-2-2s0.9-2,2-2h14.5c1.1,0,2,0.9,2,2S960.9,350.2,959.8,350.2L959.8,350.2z"/>
	<path class="st1" d="M987.6,350.2h-20.3c-1.1,0-2-0.9-2-2s0.9-2,2-2h20.3c1.1,0,2,0.9,2,2S988.7,350.2,987.6,350.2z"/>
	<path class="st1" d="M922,370.6h-29.4c-1.1,0-2-0.9-2-2s0.9-2,2-2H922c1.1,0,2,0.9,2,2S923.1,370.6,922,370.6z"/>
	<path class="st1" d="M882.1,370.6h-12.4c-1.1,0-2-0.9-2-2s0.9-2,2-2h12.4c1.1,0,2,0.9,2,2S883.2,370.6,882.1,370.6z"/>
	<path class="st1" d="M859.2,370.6h-16.8c-1.1,0-2-0.9-2-2s0.9-2,2-2h16.8c1.1,0,2,0.9,2,2S860.3,370.6,859.2,370.6L859.2,370.6z"/>
	<circle class="st3" cx="1004.9" cy="240.8" r="2.3"/>
	<circle class="st3" cx="994.9" cy="240.8" r="2.3"/>
	<circle class="st3" cx="984.9" cy="240.8" r="2.3"/>
	<circle class="st3" cx="782.4" cy="240.8" r="2.3"/>
	<path class="st1" d="M985.9,381.3H1160c8.8,0,16,7.2,16,16V522l0,0H969.9l0,0V397.3C969.9,388.5,977.1,381.3,985.9,381.3z"/>
	<path class="st3" d="M1176,524H969.9c-1.1,0-2-0.9-2-2V397.3c0-9.9,8.1-18,18-18H1160c9.9,0,18,8.1,18,18V522
		C1178,523.1,1177.1,524,1176,524z M971.9,520H1174V397.3c0-7.7-6.3-14-14-14H985.9c-7.7,0-14,6.3-14,14V520z"/>
	<path class="st3" d="M1084.1,470c-1.1,0-2-0.8-2.1-1.9c0-0.8,0.4-1.5,1.1-1.8l58.9-32c0.9-0.6,2.2-0.3,2.7,0.7
		c0.6,0.9,0.3,2.2-0.7,2.7c-0.1,0-0.1,0.1-0.2,0.1l-58.9,32C1084.7,469.9,1084.4,470,1084.1,470z"/>
	<path class="st3" d="M1084,470c-1.1,0.1-2.1-0.7-2.2-1.8c-0.1-1.1,0.7-2.1,1.8-2.2l58.9-10.7c1.1-0.2,2.1,0.5,2.3,1.6
		s-0.5,2.1-1.6,2.3l-58.8,10.7C1084.3,470,1084.1,470,1084,470z"/>
	<path class="st3" d="M1143,480.7c-0.1,0-0.2,0-0.4,0l-58.9-10.7c-1.1-0.2-1.8-1.2-1.6-2.3s1.2-1.8,2.3-1.6l0,0l58.9,10.7
		c1.1,0.1,1.9,1.1,1.8,2.2C1145,480,1144.1,480.8,1143,480.7L1143,480.7z"/>
	<path class="st3" d="M1142.9,502c-0.3,0-0.7-0.1-1-0.2l-58.9-32c-1-0.5-1.4-1.7-0.9-2.7c0.5-1,1.7-1.4,2.7-0.9
		c0.1,0,0.1,0.1,0.2,0.1l58.9,32c1,0.5,1.3,1.7,0.8,2.7C1144.3,501.6,1143.6,502,1142.9,502L1142.9,502z"/>
	<path class="st3" d="M1073,501.8h-29.9c-1.1,0-2-0.9-2-2s0.9-2,2-2h29.9c1.1,0,2,0.9,2,2S1074.1,501.8,1073,501.8z"/>
	<path class="st3" d="M1031.2,470c-0.4,0-0.8-0.1-1.2-0.4l-41.4-30c-0.9-0.6-1.1-1.9-0.4-2.8s1.9-1.1,2.8-0.4l41.4,30
		c0.9,0.6,1.1,1.9,0.4,2.8C1032.4,469.7,1031.8,470,1031.2,470z"/>
	<path class="st3" d="M989.8,500c-1.1,0-2-0.9-2-2c0-0.6,0.3-1.2,0.8-1.6l41.4-30c0.9-0.6,2.1-0.4,2.8,0.4s0.4,2.1-0.4,2.8l0,0
		l-41.4,30C990.7,499.9,990.3,500,989.8,500z"/>
	<path class="st3" d="M1067.4,470H996c-1.1,0-2-0.9-2-2s0.9-2,2-2h71.4c1.1,0,2,0.9,2,2S1068.5,470,1067.4,470L1067.4,470z"/>
	<path class="st3" d="M1084.1,494.5c-1.1,0-2-0.9-2-2v-80.1c0-1.1,0.9-2,2-2c1.1,0,2,0.9,2,2v80.1
		C1086.1,493.6,1085.2,494.5,1084.1,494.5C1084.1,494.5,1084.1,494.5,1084.1,494.5z"/>
	<circle class="st3" cx="982.6" cy="393.5" r="3.2"/>
	<circle class="st3" cx="995.1" cy="393.5" r="3.2"/>
	<circle class="st3" cx="1007.6" cy="393.5" r="3.2"/>
	<circle class="st5" cx="989.8" cy="498" r="6.2"/>
	<path class="st3" d="M989.8,506.2c-4.5,0-8.2-3.7-8.2-8.2c0-4.5,3.7-8.2,8.2-8.2c4.5,0,8.2,3.6,8.2,8.1
		C998,502.5,994.4,506.2,989.8,506.2C989.8,506.2,989.8,506.2,989.8,506.2z M989.8,493.9c-2.3,0-4.2,1.9-4.2,4.2s1.9,4.2,4.2,4.2
		s4.2-1.9,4.2-4.2c0,0,0,0,0,0C994,495.7,992.1,493.9,989.8,493.9L989.8,493.9z"/>
	<circle class="st5" cx="989.8" cy="468" r="6.2"/>
	<path class="st3" d="M989.8,476.2c-4.5,0-8.2-3.7-8.2-8.2c0-4.5,3.7-8.2,8.2-8.2c4.5,0,8.2,3.6,8.2,8.1
		C998,472.5,994.4,476.2,989.8,476.2L989.8,476.2z M989.8,463.8c-2.3,0-4.2,1.9-4.2,4.2c0,2.3,1.9,4.2,4.2,4.2
		c2.3,0,4.2-1.9,4.2-4.2c0,0,0,0,0,0C994,465.7,992.1,463.9,989.8,463.8z"/>
	<circle class="st5" cx="989.8" cy="438" r="6.2"/>
	<path class="st3" d="M989.8,446.2c-4.5,0-8.2-3.7-8.2-8.2s3.7-8.2,8.2-8.2s8.2,3.7,8.2,8.2l0,0C998,442.5,994.3,446.2,989.8,446.2z
		 M989.8,433.8c-2.3,0-4.2,1.9-4.2,4.2c0,2.3,1.9,4.2,4.2,4.2c2.3,0,4.2-1.9,4.2-4.2c0,0,0,0,0,0C994,435.7,992.1,433.8,989.8,433.8
		z"/>
	<polygon class="st1" points="1084.1,429 1070.8,436.3 1084.1,443.6 1097.3,436.3 	"/>
	<path class="st3" d="M1084.1,445.6c-0.3,0-0.7-0.1-1-0.2l-13.2-7.3c-1-0.5-1.3-1.7-0.8-2.7c0.2-0.3,0.5-0.6,0.8-0.8l13.2-7.3
		c0.6-0.3,1.3-0.3,1.9,0l13.2,7.3c1,0.5,1.3,1.7,0.8,2.7c-0.2,0.3-0.5,0.6-0.8,0.8l-13.3,7.3
		C1084.7,445.5,1084.4,445.6,1084.1,445.6z M1075,436.3l9.1,5l9.1-5l-9.1-5L1075,436.3z"/>
	<polygon class="st1" points="1084.1,492.5 1070.8,499.8 1084.1,507 1097.3,499.8 	"/>
	<path class="st3" d="M1084.1,509c-0.3,0-0.7-0.1-1-0.2l-13.2-7.3c-1-0.5-1.3-1.7-0.8-2.7c0.2-0.3,0.5-0.6,0.8-0.8l13.2-7.3
		c0.6-0.3,1.3-0.3,1.9,0l13.3,7.3c1,0.5,1.3,1.7,0.8,2.7c-0.2,0.3-0.5,0.6-0.8,0.8l-13.3,7.3C1084.7,508.9,1084.4,509,1084.1,509z
		 M1075,499.8l9.1,5l9.1-5l-9.1-5L1075,499.8z"/>
	<rect x="1066.4" y="459.8" class="st4" width="35.3" height="16.4"/>
	<path class="st3" d="M1101.7,478.2h-35.3c-1.1,0-2-0.9-2-2v-16.4c0-1.1,0.9-2,2-2h35.3c1.1,0,2,0.9,2,2v16.4
		C1103.7,477.3,1102.8,478.2,1101.7,478.2z M1068.4,474.2h31.3v-12.4h-31.3L1068.4,474.2z"/>
	<polygon class="st1" points="1031.2,460.8 1018,468 1031.2,475.3 1044.5,468 	"/>
	<path class="st3" d="M1031.2,477.3c-0.3,0-0.7-0.1-1-0.2l-13.2-7.3c-1-0.5-1.3-1.7-0.8-2.7c0.2-0.3,0.5-0.6,0.8-0.8l13.2-7.3
		c0.6-0.3,1.3-0.3,1.9,0l13.2,7.3c1,0.5,1.3,1.7,0.8,2.7c-0.2,0.3-0.5,0.6-0.8,0.8l-13.2,7.2
		C1031.9,477.2,1031.5,477.3,1031.2,477.3z M1022.1,468l9.1,5l9.1-5l-9.1-5L1022.1,468z"/>
	<rect x="1019.7" y="430.9" class="st4" width="23.1" height="10.7"/>
	<path class="st3" d="M1042.7,443.7h-23.1c-1.1,0-2-0.9-2-2v-10.7c0-1.1,0.9-2,2-2h23.1c1.1,0,2,0.9,2,2v10.7
		C1044.8,442.8,1043.9,443.7,1042.7,443.7C1042.7,443.7,1042.7,443.7,1042.7,443.7z M1021.6,439.7h19.1v-6.7h-19.1L1021.6,439.7z"/>
	<ellipse class="st5" cx="1031.2" cy="499.8" rx="11.9" ry="4.8"/>
	<path class="st3" d="M1031.2,506.5c-6.9,0-13.9-2.3-13.9-6.8s7-6.8,13.9-6.8s13.9,2.3,13.9,6.8S1038.1,506.5,1031.2,506.5z
		 M1031.2,497c-6.2,0-9.8,2-9.9,2.8c0.1,0.8,3.7,2.8,9.9,2.8s9.8-2,9.9-2.8C1041,498.9,1037.4,497,1031.2,497L1031.2,497z
		 M1041.1,499.8L1041.1,499.8z"/>
	<ellipse class="st5" cx="1142.9" cy="500" rx="11.9" ry="4.8"/>
	<path class="st3" d="M1142.9,506.8c-6.9,0-13.9-2.3-13.9-6.8s7-6.8,13.9-6.8s13.9,2.3,13.9,6.8S1149.8,506.8,1142.9,506.8z
		 M1142.9,497.2c-6.2,0-9.8,2-9.9,2.8c0.1,0.8,3.7,2.8,9.9,2.8s9.8-2,9.9-2.8C1152.7,499.2,1149.1,497.2,1142.9,497.2z M1152.8,500
		L1152.8,500z"/>
	<ellipse class="st5" cx="1142.9" cy="478.7" rx="11.9" ry="4.8"/>
	<path class="st3" d="M1142.9,485.5c-6.9,0-13.9-2.3-13.9-6.8s7-6.8,13.9-6.8s13.9,2.3,13.9,6.8S1149.8,485.5,1142.9,485.5z
		 M1142.9,475.9c-6.2,0-9.8,2-9.9,2.8c0.1,0.8,3.7,2.8,9.9,2.8s9.8-2,9.9-2.8C1152.7,477.9,1149.1,475.9,1142.9,475.9z
		 M1152.8,478.7L1152.8,478.7z"/>
	<ellipse class="st5" cx="1142.9" cy="457.4" rx="11.9" ry="4.8"/>
	<path class="st3" d="M1142.9,464.1c-6.9,0-13.9-2.3-13.9-6.8s7-6.8,13.9-6.8s13.9,2.3,13.9,6.8S1149.8,464.1,1142.9,464.1z
		 M1142.9,454.6c-6.2,0-9.8,2-9.9,2.8c0.1,0.8,3.7,2.8,9.9,2.8s9.8-2,9.9-2.8C1152.7,456.5,1149.1,454.6,1142.9,454.6L1142.9,454.6z
		 M1152.8,457.4L1152.8,457.4z"/>
	<ellipse class="st5" cx="1142.9" cy="436" rx="11.9" ry="4.8"/>
	<path class="st3" d="M1142.9,442.8c-6.9,0-13.9-2.3-13.9-6.8s7-6.8,13.9-6.8s13.9,2.3,13.9,6.8S1149.8,442.8,1142.9,442.8z
		 M1142.9,433.2c-6.2,0-9.8,2-9.9,2.8c0.1,0.8,3.7,2.8,9.9,2.8s9.8-2,9.9-2.8C1152.7,435.2,1149.1,433.2,1142.9,433.2z M1152.8,436
		L1152.8,436z"/>
	<path class="st3" d="M1123.7,406.6h-80.6c-1.1,0-2-0.9-2-2s0.9-2,2-2h80.6c1.1,0,2,0.9,2,2S1124.8,406.6,1123.7,406.6z"/>
	<rect x="1066.4" y="396.4" class="st4" width="35.3" height="16.4"/>
	<path class="st3" d="M1101.7,414.8h-35.3c-1.1,0-2-0.9-2-2v-16.4c0-1.1,0.9-2,2-2h35.3c1.1,0,2,0.9,2,2v16.4
		C1103.7,413.9,1102.8,414.8,1101.7,414.8z M1068.4,410.8h31.3v-12.4h-31.3L1068.4,410.8z"/>
	<ellipse class="st5" cx="1142.9" cy="404.6" rx="19.3" ry="7.8"/>
	<path class="st3" d="M1142.9,414.3c-10.3,0-21.3-3.4-21.3-9.8s11-9.8,21.3-9.8c10.3,0,21.3,3.4,21.3,9.8S1153.3,414.3,1142.9,414.3
		z M1142.9,398.8c-10.6,0-17.3,3.4-17.3,5.8s6.7,5.8,17.3,5.8c10.5,0,17.3-3.4,17.3-5.8S1153.5,398.8,1142.9,398.8z"/>
	<ellipse class="st5" cx="1031.2" cy="404.6" rx="11.9" ry="4.8"/>
	<path class="st3" d="M1031.2,411.4c-6.9,0-13.9-2.3-13.9-6.8s7-6.8,13.9-6.8s13.9,2.3,13.9,6.8S1038.1,411.4,1031.2,411.4z
		 M1031.2,401.8c-6.2,0-9.8,2-9.9,2.8c0.1,0.8,3.7,2.8,9.9,2.8s9.8-2,9.9-2.8C1041,403.8,1037.4,401.8,1031.2,401.8L1031.2,401.8z
		 M1041.1,404.6L1041.1,404.6z"/>
	<path class="st3" d="M1070.8,438.3h-28.1c-1.1,0-2-0.9-2-2s0.9-2,2-2h28.1c1.1,0,2,0.9,2,2S1071.9,438.3,1070.8,438.3z"/>
	<path class="st4" d="M1087.2,252.2v-2c0-1.2,0.5-2.3,1.5-3l35.1-23.7c0.5-0.3,1.1-0.2,1.4,0.3c0.2,0.2,0.2,0.5,0.1,0.8v5.4
		c0.1,1.2-0.5,2.4-1.5,3l-25.6,18.1v0.3l25.6,18.1c1,0.6,1.6,1.8,1.5,3v5.4c0.1,0.5-0.2,1.1-0.7,1.2c-0.3,0.1-0.6,0-0.8-0.1
		l-35.1-23.7C1087.6,254.6,1087,253.4,1087.2,252.2z"/>
	<path class="st3" d="M1124.4,281c-0.4,0-0.8-0.1-1.2-0.2c-0.2-0.1-0.3-0.1-0.5-0.2l-35.1-23.7c-1.7-0.9-2.6-2.8-2.4-4.7v-2
		c0-1.8,0.8-3.6,2.4-4.6l35.2-23.7c0.2-0.1,0.3-0.2,0.5-0.2c1.5-0.6,3.3,0.1,3.9,1.6c0.2,0.4,0.3,0.9,0.2,1.4v5.4
		c0.1,1.9-0.9,3.7-2.5,4.7l-23.4,16.5l23.3,16.5c1.6,1,2.6,2.8,2.5,4.7v5.3c0,1-0.4,2-1.2,2.6C1125.6,280.8,1125,281,1124.4,281z
		 M1123.4,226.2l-33.5,22.6c-0.4,0.3-0.7,0.8-0.7,1.3v2c0,0.9,0,0.9,0.6,1.3l0.1,0.1l33.5,22.6v-3.7c0-0.4-0.1-0.8-0.3-1.2
		c-0.1-0.1-0.2-0.1-0.3-0.2l-25.6-18.1c-0.5-0.4-0.8-1-0.8-1.6V251c0-0.6,0.3-1.3,0.8-1.6l25.6-18.1c0.1-0.1,0.2-0.2,0.4-0.2
		c0.2-0.3,0.3-0.7,0.3-1.1L1123.4,226.2z"/>
	<path class="st1" d="M1232.3,385.7c-0.8,0.1-1.5-0.6-1.5-1.3c0-0.1,0-0.1,0-0.2v-4.1c0-0.8,0.6-1.5,1.4-1.5c0.1,0,0.1,0,0.2,0h4
		c5,0,7.5-2.5,7.5-8.6v-29.8c0-11.8,1.9-15.5,7.4-17.6v-0.3c-5.5-2.1-7.4-6-7.4-17.6v-29.2c0-6.1-2.5-8.6-7.5-8.6h-4
		c-0.8,0.1-1.5-0.6-1.5-1.3c0-0.1,0-0.1,0-0.2v-4.1c-0.1-0.8,0.6-1.5,1.3-1.5c0.1,0,0.1,0,0.2,0h5.2c9.6,0,14.1,4.7,14.1,16.1v29.8
		c0,9.5,3.4,12.6,8.7,12.9c0.9,0.1,1.5,0.6,1.5,1.5v4.9c0,0.9-0.6,1.4-1.5,1.5c-5.3,0.3-8.7,3.4-8.7,12.9v30.4
		c0,11.3-4.4,16.1-14.1,16.1L1232.3,385.7z"/>
	<path class="st3" d="M1237.5,387.7h-5.2c-1.9,0-3.5-1.5-3.5-3.4c0-0.1,0-0.1,0-0.2v-4.1c0-1.9,1.5-3.5,3.4-3.5c0.1,0,0.1,0,0.2,0h4
		c3.5,0,5.5-1.1,5.5-6.6v-29.8c0-9.9,1.4-14.9,5.5-17.8c-4.1-2.9-5.5-7.9-5.5-17.7v-29.2c0-5.5-2-6.6-5.5-6.6h-4
		c-1.9,0-3.5-1.5-3.5-3.4c0-0.1,0-0.1,0-0.2v-4.1c0-1.9,1.5-3.5,3.4-3.5c0.1,0,0.1,0,0.2,0h5.2c11,0,16.1,5.7,16.1,18.1v29.8
		c0,9.7,3.5,10.7,6.8,10.9h0.2c1.8,0.2,3.2,1.7,3.2,3.5v4.9c0,1.8-1.4,3.3-3.2,3.5h-0.2c-6.3,0.4-6.8,5.8-6.8,10.9v30.5
		C1253.6,382,1248.5,387.7,1237.5,387.7z M1232.3,383.7L1232.3,383.7z M1232.8,383.7h4.7c8.7,0,12.1-3.9,12.1-14.1v-30.4
		c0-9.4,3.3-14.3,10.2-14.8v-4c-6.9-0.5-10.2-5.4-10.2-14.8v-29.8c0-10.1-3.4-14.1-12.1-14.1h-4.7v3.2h3.5c6.3,0,9.5,3.6,9.5,10.6
		v29.2c0,11.4,1.9,14.1,6.2,15.7c0.8,0.3,1.3,1,1.3,1.9v0.3c0,0.8-0.5,1.6-1.3,1.9c-4.3,1.7-6.2,4.2-6.2,15.7V370
		c0,7-3.2,10.6-9.5,10.6h-3.5V383.7z"/>
	<polygon class="st6" points="1259.4,558.2 1293.9,458 1304.9,458 1270.5,558.2 	"/>
	<path class="st3" d="M1270.5,560.2h-11c-1.1,0-2-0.9-2-2c0-0.2,0-0.4,0.1-0.6l34.5-100.2c0.3-0.8,1-1.3,1.9-1.4h11c1.1,0,2,0.9,2,2
		c0,0.2,0,0.4-0.1,0.6l-34.4,100.2C1272.1,559.6,1271.3,560.2,1270.5,560.2z M1262.2,556.2h6.8l33.1-96.2h-6.8L1262.2,556.2z"/>
	<path class="st4" d="M521.3,499.3v2c0,1.2-0.5,2.3-1.5,3L484.6,528c-0.5,0.3-1.1,0.2-1.4-0.3c-0.2-0.2-0.2-0.5-0.1-0.8v-5.4
		c-0.1-1.2,0.5-2.4,1.5-3l25.6-18.1v-0.3L484.6,482c-1-0.6-1.6-1.8-1.5-3v-5.4c-0.1-0.5,0.2-1.1,0.7-1.2c0.3-0.1,0.6,0,0.8,0.1
		l35.1,23.7C520.8,496.9,521.4,498.1,521.3,499.3z"/>
	<path class="st3" d="M484.1,530c-0.6,0-1.2-0.2-1.7-0.5c-0.8-0.6-1.3-1.6-1.2-2.6v-5.4c-0.1-1.9,0.9-3.7,2.5-4.7l23.4-16.6
		l-23.4-16.5c-1.6-1-2.6-2.8-2.5-4.7v-5.4c-0.1-1.7,1.1-3.1,2.8-3.2c0.5,0,1,0,1.4,0.2c0.2,0.1,0.3,0.1,0.5,0.2l35.1,23.7
		c1.7,0.9,2.6,2.8,2.5,4.7v2c0,1.8-0.9,3.6-2.4,4.6l-35.2,23.8c-0.2,0.1-0.3,0.2-0.5,0.2C484.9,530,484.5,530,484.1,530z
		 M484.6,527.9L484.6,527.9z M485.1,475.2v3.8c0,0.4,0.1,0.8,0.4,1.2c0.1,0.1,0.2,0.1,0.3,0.2l25.6,18.1c0.5,0.4,0.8,1,0.8,1.6v0.3
		c0,0.6-0.3,1.3-0.8,1.6l-25.6,18.2c-0.1,0.1-0.2,0.2-0.4,0.2c-0.2,0.3-0.3,0.7-0.3,1.2v3.7l33.5-22.6c0.4-0.3,0.7-0.8,0.6-1.3v-2
		c0-0.9,0-0.9-0.6-1.3l-0.1-0.1L485.1,475.2z"/>
	<path class="st6" d="M520.7,226.1c0.8-0.1,1.5,0.6,1.5,1.3c0,0.1,0,0.1,0,0.2v4.1c0,0.8-0.6,1.5-1.4,1.5c-0.1,0-0.1,0-0.2,0h-4
		c-5,0-7.5,2.4-7.5,8.6v29.8c0,11.8-1.9,15.5-7.4,17.6v0.3c5.5,2.1,7.4,6,7.4,17.6v29.2c0,6.1,2.5,8.6,7.5,8.6h4
		c0.8-0.1,1.5,0.6,1.5,1.3c0,0.1,0,0.1,0,0.2v4.1c0.1,0.8-0.6,1.5-1.3,1.5c-0.1,0-0.1,0-0.2,0h-5.2c-9.6,0-14.1-4.7-14.1-16.1v-29.8
		c0-9.5-3.4-12.6-8.7-12.9c-0.9-0.1-1.5-0.6-1.5-1.5v-5c0-0.9,0.6-1.4,1.5-1.5c5.4-0.3,8.7-3.4,8.7-12.9v-30.4
		c0-11.3,4.4-16.1,14.1-16.1L520.7,226.1z"/>
	<path class="st3" d="M520.7,354.2h-5.2c-11,0-16.1-5.7-16.1-18.1v-29.8c0-9.7-3.5-10.7-6.8-10.9h-0.2c-1.8-0.2-3.2-1.7-3.2-3.5v-5
		c0-1.8,1.4-3.3,3.2-3.5h0.2c6.3-0.4,6.8-5.8,6.8-10.9v-30.4c0-12.3,5.1-18.1,16.1-18.1h5.2c1.9,0,3.5,1.5,3.5,3.4
		c0,0.1,0,0.1,0,0.2v4.1c0,1.9-1.5,3.5-3.4,3.5c-0.1,0-0.1,0-0.2,0h-4c-3.5,0-5.5,1.1-5.5,6.6v29.8c0,9.9-1.4,14.9-5.4,17.8
		c4.1,2.9,5.4,7.9,5.4,17.7v29.2c0,5.5,2,6.6,5.5,6.6h4c1.9,0,3.5,1.5,3.5,3.4c0,0.1,0,0.1,0,0.2v4.1c0.1,1.9-1.5,3.5-3.4,3.5
		C520.8,354.2,520.7,354.2,520.7,354.2z M493.2,291.5c6.9,0.5,10.2,5.4,10.2,14.8v29.8c0,10.1,3.4,14.1,12.1,14.1h4.7V347h-3.5
		c-6.3,0-9.5-3.6-9.5-10.6v-29.2c0-11.4-1.9-14.1-6.2-15.7c-0.8-0.3-1.3-1-1.3-1.9v-0.3c0-0.8,0.5-1.6,1.3-1.9
		c4.4-1.7,6.2-4.2,6.2-15.7v-29.8c0-7,3.2-10.6,9.5-10.6h3.5v-3.2h-4.7c-8.7,0-12.1,3.9-12.1,14.1v30.4c0,9.4-3.4,14.3-10.2,14.8
		V291.5z M520.7,228.1L520.7,228.1L520.7,228.1z"/>
	<path class="st1" d="M651.2,511.1c-0.7,0-1.4-0.5-1.4-1.3c0-0.1,0-0.1,0-0.2v-3.9c0-0.7,0.5-1.4,1.3-1.4c0.1,0,0.1,0,0.2,0h16.2
		c0.4,0.1,0.8-0.2,0.9-0.6c0-0.1,0-0.1,0-0.2V444c0.1-0.4-0.2-0.8-0.6-0.9c-0.1,0-0.1,0-0.2,0h-16.2c-0.7,0-1.4-0.5-1.4-1.3
		c0-0.1,0-0.1,0-0.2v-3.9c0-0.7,0.5-1.4,1.3-1.4c0.1,0,0.1,0,0.2,0h23.2c0.7,0,1.4,0.5,1.4,1.3c0,0.1,0,0.1,0,0.2v71.8
		c0,0.7-0.5,1.4-1.3,1.4c-0.1,0-0.1,0-0.2,0L651.2,511.1z"/>
	<path class="st3" d="M674.4,513.1h-23.2c-1.9,0-3.4-1.4-3.4-3.3c0-0.1,0-0.1,0-0.2v-3.9c0-1.9,1.4-3.4,3.3-3.4c0,0,0.1,0,0.1,0
		h15.1v-57.1h-15.1c-1.9,0-3.4-1.4-3.4-3.3c0,0,0-0.1,0-0.1v-3.9c0-1.9,1.4-3.4,3.3-3.4c0,0,0.1,0,0.1,0h23.2c1.9,0,3.4,1.4,3.4,3.3
		c0,0,0,0.1,0,0.1v71.8c0,1.9-1.4,3.4-3.3,3.4C674.5,513.1,674.5,513.1,674.4,513.1z M651.8,509.1h22v-70.7h-22v2.8h15.7
		c1.5-0.1,2.8,1.1,2.9,2.6c0,0.1,0,0.2,0,0.2v59.4c0.1,1.5-1.1,2.8-2.6,2.9c-0.1,0-0.2,0-0.2,0h-15.7V509.1z"/>
	<path class="st1" d="M774,309.5c-0.5,0-0.9,0-1.4,0c5.2-29.1-14.2-57-43.4-62.2c-23.5-4.2-47,7.7-57.5,29.1
		c-20-4.4-39.8,8.2-44.2,28.2c-1.5,6.8-1.1,13.9,1.3,20.4c-14.2-2.7-28,6.7-30.6,21c-2.7,14.2,6.7,28,21,30.6
		c1.6,0.3,3.2,0.5,4.9,0.4h150c18.7-0.3,33.6-15.7,33.2-34.4C806.9,324.5,792.2,309.8,774,309.5z"/>
	<path class="st3" d="M774,379.2H624c-15.6,0-28.2-12.6-28.2-28.2s12.6-28.2,28.2-28.2c0.7,0,1.3,0,2,0.1
		c-5.6-20.8,6.8-42.2,27.7-47.8c5.5-1.5,11.3-1.7,17-0.7c14.3-27.2,47.9-37.6,75.1-23.2c20.6,10.9,32.3,33.4,29.2,56.5
		c19.8,0.6,35.3,17.2,34.6,37C808.9,363.7,793.2,379,774,379.2L774,379.2z M624,326.7c-13.4,0-24.2,10.9-24.2,24.2
		s10.9,24.2,24.2,24.2h150c17.6,0.3,32.1-13.7,32.4-31.3c0.3-17.6-13.7-32.1-31.3-32.4c-0.4,0-0.8,0-1.1,0c-0.4,0-0.9,0-1.3,0
		c-0.6,0-1.2-0.2-1.6-0.7c-0.4-0.5-0.6-1.1-0.5-1.7c5-28-13.7-54.8-41.8-59.8c-3-0.5-6-0.8-9.1-0.8c-19.7-0.1-37.6,11.1-46.3,28.8
		c-0.4,0.8-1.3,1.3-2.2,1.1c-18.9-4.2-37.6,7.8-41.8,26.7c-1.4,6.4-1,13.1,1.2,19.3c0.4,1-0.2,2.2-1.2,2.6c-0.3,0.1-0.7,0.1-1,0.1
		C627,326.8,625.5,326.7,624,326.7z"/>
	<path class="st4" d="M694.5,334.4c-1.1,0-2-0.9-2-2c0-0.5,0.2-1,0.6-1.4c8-8,21-8,29,0c0.8,0.8,0.8,2,0,2.8c-0.8,0.8-2,0.8-2.8,0
		c-6.4-6.4-16.9-6.4-23.3,0c0,0,0,0,0,0C695.6,334.1,695.1,334.4,694.5,334.4z"/>
	<path class="st4" d="M685.5,325.3c-1.1,0-2-0.9-2-2c0-0.5,0.2-1,0.6-1.4c13-13,34.1-13,47.1,0c0,0,0,0,0,0c0.8,0.8,0.8,2,0,2.8
		s-2,0.8-2.8,0c-11.4-11.4-30-11.4-41.4,0c0,0,0,0,0,0C686.5,325.1,686,325.3,685.5,325.3z"/>
	<path class="st4" d="M674.7,314.5c-1.1,0-2-0.9-2-2c0-0.5,0.2-1,0.6-1.4c18.9-18.9,49.7-18.9,68.6,0c0.8,0.8,0.8,2.1,0,2.8
		c-0.8,0.8-2.1,0.8-2.8,0c-17.4-17.4-45.6-17.4-63,0c0,0,0,0,0,0C675.7,314.4,675.2,314.5,674.7,314.5z"/>
	<path class="st4" d="M707.6,353.2c-4.3,0-7.7-3.5-7.7-7.7s3.5-7.7,7.7-7.7s7.7,3.5,7.7,7.7C715.4,349.7,711.9,353.2,707.6,353.2z
		 M707.6,341.7c-2.1,0-3.7,1.7-3.7,3.7c0,2.1,1.7,3.7,3.7,3.7c2.1,0,3.7-1.7,3.7-3.7C711.4,343.4,709.7,341.7,707.6,341.7z"/>
</g>
</svg>
