<svg id="Слой_1" data-name="Слой 1" xmlns="http://www.w3.org/2000/svg" xmlns:xlink="http://www.w3.org/1999/xlink" viewBox="0 0 104.69 100"><defs><style>.cls-1{fill:#3c3d45;}.cls-2{fill:url(#Новый_образец_градиента_3);}.cls-3{fill:url(#Новый_образец_градиента_9);}.cls-4{fill:url(#Новый_образец_градиента_1);}.cls-5{fill:url(#Новый_образец_градиента_5);}.cls-6{fill:url(#Новый_образец_градиента_7);}.cls-7{fill:url(#Новый_образец_градиента_6);}.cls-8{fill:url(#Новый_образец_градиента_4);}.cls-9{fill:url(#Новый_образец_градиента_4-2);}.cls-10{fill:url(#Новый_образец_градиента_4-3);}.cls-11{fill:url(#Новый_образец_градиента_4-4);}.cls-12{fill:url(#Новый_образец_градиента_4-5);}.cls-13{fill:url(#Новый_образец_градиента_6-2);}</style><linearGradient id="Новый_образец_градиента_3" x1="7.22" y1="47.49" x2="97.47" y2="47.49" gradientUnits="userSpaceOnUse"><stop offset="0" stop-color="#eaedee"/><stop offset="1" stop-color="#b1bfc3"/></linearGradient><linearGradient id="Новый_образец_градиента_9" y1="80.88" x2="104.69" y2="80.88" gradientUnits="userSpaceOnUse"><stop offset="0" stop-color="#b1bfc3"/><stop offset="1" stop-color="#5c5a68"/></linearGradient><linearGradient id="Новый_образец_градиента_1" x1="10.83" y1="45.68" x2="93.86" y2="45.68" gradientUnits="userSpaceOnUse"><stop offset="0" stop-color="#5c5a68"/><stop offset="1" stop-color="#3c3d45"/></linearGradient><linearGradient id="Новый_образец_градиента_5" x1="50.31" y1="41.64" x2="88.22" y2="41.64" gradientUnits="userSpaceOnUse"><stop offset="0" stop-color="#f68d43"/><stop offset="1" stop-color="#f45a50"/></linearGradient><linearGradient id="Новый_образец_градиента_7" x1="68.36" y1="32.62" x2="88.22" y2="32.62" gradientUnits="userSpaceOnUse"><stop offset="0" stop-color="#f6b139"/><stop offset="1" stop-color="#f68d43"/></linearGradient><linearGradient id="Новый_образец_градиента_6" x1="59.19" y1="66.54" x2="88.22" y2="66.54" gradientUnits="userSpaceOnUse"><stop offset="0" stop-color="#3fb5cd"/><stop offset="1" stop-color="#5f70b4"/></linearGradient><linearGradient id="Новый_образец_градиента_4" x1="35.77" y1="46.17" x2="81.24" y2="46.17" gradientTransform="translate(-41.49 -0.74)" gradientUnits="userSpaceOnUse"><stop offset="0" stop-color="#bdd74f"/><stop offset="1" stop-color="#60be68"/></linearGradient><linearGradient id="Новый_образец_градиента_4-2" x1="35.77" y1="52.04" x2="53.06" y2="52.04" gradientTransform="translate(-21.52 7.48)" xlink:href="#Новый_образец_градиента_4"/><linearGradient id="Новый_образец_градиента_4-3" x1="35.77" y1="63.79" x2="53.06" y2="63.79" gradientTransform="translate(-9.77 -4.27)" xlink:href="#Новый_образец_градиента_4"/><linearGradient id="Новый_образец_градиента_4-4" x1="35.77" y1="69.67" x2="62.29" y2="69.67" gradientTransform="translate(-8.51 -14.76)" xlink:href="#Новый_образец_градиента_4"/><linearGradient id="Новый_образец_градиента_4-5" x1="35.77" y1="57.92" x2="72.93" y2="57.92" gradientTransform="translate(-25.58 -8.33)" xlink:href="#Новый_образец_градиента_4"/><linearGradient id="Новый_образец_градиента_6-2" x1="50.31" y1="66.54" x2="57.07" y2="66.54" xlink:href="#Новый_образец_градиента_6"/></defs><title>anytest_icons</title><circle class="cls-1" cx="54.57" cy="50" r="50"/><path class="cls-2" d="M37.9,76.37V80H66.78V76.37H97.47V18.61A3.61,3.61,0,0,0,93.86,15h-83a3.61,3.61,0,0,0-3.61,3.61V76.37H37.9Z"/><path class="cls-3" d="M66.78,76.37V80H37.9V76.37H0v5.41a3.61,3.61,0,0,0,3.61,3.61h97.47a3.61,3.61,0,0,0,3.61-3.61V76.37H66.78Z"/><polygon class="cls-4" points="10.83 72.76 93.86 72.76 93.86 18.61 10.83 18.61 10.83 72.76"/><path class="cls-5" d="M88.22,41.64a19,19,0,1,1-19-19,19,19,0,0,1,19,19"/><path class="cls-6" d="M68.39,22.71l0,0V42.48a0.07,0.07,0,0,0,.07.07H88.17l0,0A19,19,0,0,0,68.39,22.71"/><rect class="cls-7" x="59.19" y="64.92" width="29.02" height="3.25" rx="1.62" ry="1.62"/><rect class="cls-8" x="-5.72" y="43.8" width="45.48" height="3.25" rx="1.62" ry="1.62" transform="translate(-28.41 62.44) rotate(-90)"/><rect class="cls-9" x="14.25" y="57.9" width="17.29" height="3.25" rx="1.62" ry="1.62" transform="translate(-36.63 82.41) rotate(-90)"/><rect class="cls-10" x="26" y="57.9" width="17.29" height="3.25" rx="1.62" ry="1.62" transform="translate(-24.88 94.16) rotate(-90)"/><rect class="cls-11" x="27.25" y="53.28" width="26.52" height="3.25" rx="1.62" ry="1.62" transform="translate(-14.39 95.42) rotate(-90)"/><rect class="cls-12" x="10.18" y="47.96" width="37.17" height="3.25" rx="1.62" ry="1.62" transform="translate(-20.82 78.35) rotate(-90)"/><rect class="cls-13" x="50.31" y="64.92" width="6.75" height="3.25" rx="1.62" ry="1.62"/></svg>