<svg xmlns="http://www.w3.org/2000/svg" xmlns:xlink="http://www.w3.org/1999/xlink" viewBox="0 0 1494 1074"><defs><style>.cls-1{fill:#033240;}.cls-2{font-size:100px;font-family:Helvetica-Bold, Helvetica;font-weight:700;}.cls-2,.cls-3{fill:#fff;}.cls-4{fill:#9ac355;}.cls-5{fill:url(#linear-gradient);}</style><linearGradient id="linear-gradient" x1="386.05" y1="543" x2="386.05" y2="349.45" gradientUnits="userSpaceOnUse"><stop offset="0" stop-color="#f1c056"/><stop offset="0.21" stop-color="#edc056"/><stop offset="0.43" stop-color="#e0c156"/><stop offset="0.65" stop-color="#ccc156"/><stop offset="0.87" stop-color="#afc255"/><stop offset="1" stop-color="#9ac355"/></linearGradient></defs><title>Ресурс 7</title><g id="Слой_2" data-name="Слой 2"><g id="Layer_1" data-name="Layer 1"><rect class="cls-1" width="1494" height="1074" rx="70" ry="70"/><text class="cls-2" transform="translate(498.2 831.34)">Загрузка...</text><path class="cls-3" d="M576,380.4h1.28a9.54,9.54,0,0,0,6.31-1.79c1.47-1.15,3.38-3.51,3.38-7.78,0-3.7-1.47-6.37-3.38-7.78a10.61,10.61,0,0,0-6.31-1.79H576Zm-8.28-19.12H566.4a10.58,10.58,0,0,0-6.25,1.79c-1.53,1.15-3.45,3.51-3.45,7.78s1.92,6.56,3.45,7.78a9.2,9.2,0,0,0,6.25,1.79h1.27Zm0,26.26h-1.15c-2.93,0-7.9-.32-12-3.19-3.06-2.16-6.38-6.24-6.38-13.51s3.31-11.35,6.38-13.51c4.08-2.87,9-3.19,12-3.19h1.15v-5H576v5h1.15c2.93,0,7.91.32,12,3.19,3.06,2.16,6.37,6.24,6.37,13.51s-3.31,11.35-6.37,13.51c-4.08,2.87-9.05,3.19-12,3.19H576v5.86h-8.28Z"/><polygon class="cls-3" points="621.55 350.89 621.55 379.19 644.88 350.89 650.74 350.89 650.74 393.4 642.46 393.4 642.46 364.98 619.13 393.4 613.27 393.4 613.27 350.89 621.55 350.89"/><polygon class="cls-3" points="678.88 367.34 696.86 367.34 696.86 350.89 705.14 350.89 705.14 393.4 696.86 393.4 696.86 374.47 678.88 374.47 678.88 393.4 670.6 393.4 670.6 350.89 678.88 350.89 678.88 367.34"/><path class="cls-3" d="M747.75,377.73l-6.05-15.3-6.06,15.3Zm2.42,6.75H733l-3.76,8.92h-9l18.29-42.51h6.5l17.78,42.51h-8.92Z"/><polygon class="cls-3" points="786.28 367.34 804.25 367.34 804.25 350.89 812.54 350.89 812.54 393.4 804.25 393.4 804.25 374.47 786.28 374.47 786.28 393.4 777.99 393.4 777.99 350.89 786.28 350.89 786.28 367.34"/><path class="cls-3" d="M863.24,391.87a22,22,0,0,1-10.52,2.48c-7.45,0-12-2.55-15.55-5.92a21.19,21.19,0,0,1-6.82-16.26,22.23,22.23,0,0,1,6.82-16.63c4.27-4,9.56-5.61,15.62-5.61a21.37,21.37,0,0,1,10.45,2.61v9.69A13.66,13.66,0,0,0,853,357.46c-8.54,0-14.09,7-14.09,14.85,0,9.43,7.27,14.53,14.4,14.53a12.87,12.87,0,0,0,9.94-4.65Z"/><path class="cls-3" d="M922.36,393.4h-8.28V350.89h8.28Zm-33-7.14h4.84c1.47,0,7.65,0,7.65-5.74,0-2.68-1.4-5.86-7.52-5.86h-5Zm-8.28-35.37h8.28v16.63H896c3.12,0,7.14.45,10.45,3.51a12.61,12.61,0,0,1,4,9.5,13.7,13.7,0,0,1-2.29,7.65c-3.19,4.65-8.48,5.23-12,5.23h-15Z"/><path class="cls-3" d="M574,257.87a10.8,10.8,0,1,0-10.8,10.91A10.66,10.66,0,0,0,574,257.87m1.65,0A12.45,12.45,0,1,1,563.2,245.5a12.25,12.25,0,0,1,12.46,12.38"/><path class="cls-3" d="M588.21,268.39h4c1.4,0,3.63,0,5.25-1.58a5.41,5.41,0,0,0,1.51-4.06,4.51,4.51,0,0,0-2.48-4.43,10.05,10.05,0,0,0-4.57-.72h-3.75Zm-1.58-22.57h11.55v1.44h-10v8.89h4.18c2.91,0,8.28.57,8.28,6.59,0,3.59-2.16,7.09-7.78,7.09h-6.26Z"/><path class="cls-3" d="M613.2,257h3.17c3.13,0,5.25-1.84,5.25-4.87s-2-4.85-5.51-4.85H613.2Zm0,1.44v11.41h-1.58v-24h4.64c3.93,0,7,2.16,7,6.26s-2.84,6.34-7,6.34Z"/><path class="cls-3" d="M643.86,260.5l-4.5-11.37-4.57,11.37Zm.57,1.44H634.21L631,269.82h-1.72l10.11-24.72,10,24.72h-1.73Z"/><path class="cls-3" d="M658.63,248.91a7.11,7.11,0,0,1,6.51-3.42A6.07,6.07,0,0,1,669.5,247a5.6,5.6,0,0,1,1.72,4.31,5.73,5.73,0,0,1-3.17,5.26,6.21,6.21,0,0,1,4.82,6.34,7,7,0,0,1-2.74,5.76,9.67,9.67,0,0,1-5.22,1.51,8.59,8.59,0,0,1-8.1-5.08l1.51-.72a7.36,7.36,0,0,0,6.7,4.36,7.71,7.71,0,0,0,4.14-1.26,5.41,5.41,0,0,0,2-4.57c0-3.35-2.41-5.33-6.41-5.33h-2.16v-1.44h2.16a4.7,4.7,0,0,0,4.76-4.83,4.43,4.43,0,0,0-1.12-3.1,4.52,4.52,0,0,0-3.49-1.33,5.87,5.87,0,0,0-5.18,3Z"/><path class="cls-3" d="M705.8,257.87A10.8,10.8,0,1,0,695,268.78a10.66,10.66,0,0,0,10.8-10.91m1.65,0A12.45,12.45,0,1,1,695,245.5a12.25,12.25,0,0,1,12.46,12.38"/><path class="cls-3" d="M720,268.39h4c1.62,0,3.6,0,5.22-1.44a4.65,4.65,0,0,0,1.55-3.67c0-2.16-.76-3.63-2.55-4.46a10.71,10.71,0,0,0-4.49-.68H720Zm0-11.7h3.82a4.59,4.59,0,0,0,3.27-1,4.53,4.53,0,0,0,1.58-3.67,4.68,4.68,0,0,0-1.62-3.75,6.31,6.31,0,0,0-4-1H720Zm-1.58-10.87h5.25c4.17,0,6.62,2.41,6.62,6a5.84,5.84,0,0,1-2.81,5.25,5.75,5.75,0,0,1,5,6c0,4.21-3.1,6.73-7.45,6.73h-6.58Z"/><path class="cls-3" d="M755.27,260.5l-4.5-11.37L746.2,260.5Zm.57,1.44H745.63l-3.21,7.88h-1.72l10.11-24.72,10,24.72H759Z"/><polygon class="cls-3" points="773.14 247.26 773.14 269.82 771.55 269.82 771.55 247.26 765.33 247.26 765.33 245.82 779.37 245.82 779.37 247.26 773.14 247.26"/><polygon class="cls-3" points="800.4 247.26 790.46 247.26 790.46 255.97 800.18 255.97 800.18 257.41 790.46 257.41 790.46 268.38 800.4 268.38 800.4 269.82 788.88 269.82 788.88 245.82 800.4 245.82 800.4 247.26"/><path class="cls-3" d="M827.2,245.82v24h-1.59V247.26H815.25v14c0,2.66,0,5.54-1.69,7.37a4.69,4.69,0,0,1-3.49,1.44,6.34,6.34,0,0,1-1.44-.22v-1.44a4.68,4.68,0,0,0,1.33.21,3.3,3.3,0,0,0,2.34-.93c1.37-1.4,1.37-4,1.37-6.44V245.82Z"/><path class="cls-3" d="M841,268.39h4c1.4,0,3.63,0,5.25-1.58a5.41,5.41,0,0,0,1.51-4.06,4.51,4.51,0,0,0-2.48-4.43,9.77,9.77,0,0,0-4.57-.72H841Zm-1.58-22.57H841v10.33h4.18c2.91,0,8.28.57,8.28,6.59,0,3.59-2.16,7.09-7.78,7.09h-6.26Z"/><polygon class="cls-3" points="865.75 256 880.3 256 880.3 245.82 881.88 245.82 881.88 269.82 880.3 269.82 880.3 257.45 865.75 257.45 865.75 269.82 864.17 269.82 864.17 245.82 865.75 245.82 865.75 256"/><path class="cls-3" d="M912.5,269.82h-1.58v-24h1.58Zm-16.78-1.44h4c1.4,0,3.63,0,5.25-1.58a5.41,5.41,0,0,0,1.51-4.06,4.51,4.51,0,0,0-2.48-4.43,9.76,9.76,0,0,0-4.57-.72h-3.75Zm-1.58-22.57h1.58v10.33h4.18c2.91,0,8.28.57,8.28,6.59,0,3.59-2.16,7.09-7.78,7.09h-6.26Z"/><polygon class="cls-3" points="936.28 247.26 926.34 247.26 926.34 255.97 936.06 255.97 936.06 257.41 926.34 257.41 926.34 268.38 936.28 268.38 936.28 269.82 924.76 269.82 924.76 245.82 936.28 245.82 936.28 247.26"/><polygon class="cls-3" points="570.94 294.03 570.94 318.04 569.36 318.04 569.36 295.48 554.81 295.48 554.81 318.04 553.23 318.04 553.23 294.03 570.94 294.03"/><path class="cls-3" d="M584.78,305.19H588c3.13,0,5.26-1.83,5.26-4.86s-2-4.86-5.51-4.86h-2.92Zm0,1.44V318H583.2V294h4.64c3.93,0,7,2.16,7,6.27s-2.84,6.33-7,6.33Z"/><path class="cls-3" d="M627,306.09a10.8,10.8,0,1,0-10.8,10.9,10.67,10.67,0,0,0,10.8-10.9m1.65,0a12.45,12.45,0,1,1-12.45-12.38,12.25,12.25,0,0,1,12.45,12.38"/><polygon class="cls-3" points="651.13 295.48 641.19 295.48 641.19 304.18 650.91 304.18 650.91 305.62 641.19 305.62 641.19 316.6 651.13 316.6 651.13 318.04 639.61 318.04 639.61 294.03 651.13 294.03 651.13 295.48"/><polygon class="cls-3" points="663.67 305.34 675.01 294.03 677.1 294.03 665.48 305.51 677.78 318.04 675.62 318.04 664.33 306.6 663.67 307.21 663.67 318.04 662.09 318.04 662.09 294.03 663.67 294.03 663.67 305.34"/><polygon class="cls-3" points="692.02 295.48 692.02 318.04 690.43 318.04 690.43 295.48 684.21 295.48 684.21 294.03 698.25 294.03 698.25 295.48 692.02 295.48"/><path class="cls-3" d="M726.12,318h-1.58V294h1.58Zm-16.78-1.44h4c1.4,0,3.63,0,5.25-1.58a5.41,5.41,0,0,0,1.51-4.07,4.5,4.5,0,0,0-2.48-4.42,9.77,9.77,0,0,0-4.57-.72h-3.75ZM707.77,294h1.58v10.33h4.18c2.91,0,8.28.58,8.28,6.59,0,3.6-2.16,7.09-7.78,7.09h-6.26Z"/><polygon class="cls-3" points="770.24 294.03 770.24 318.04 768.66 318.04 768.66 295.48 754.12 295.48 754.12 318.04 752.54 318.04 752.54 294.03 770.24 294.03"/><path class="cls-3" d="M794.35,308.72l-4.5-11.37-4.57,11.37Zm.57,1.44H784.71L781.5,318h-1.72l10.11-24.73,10,24.73h-1.73Z"/><polygon class="cls-3" points="810.96 305.34 822.3 294.03 824.39 294.03 812.76 305.51 825.07 318.04 822.91 318.04 811.61 306.6 810.96 307.21 810.96 318.04 809.38 318.04 809.38 294.03 810.96 294.03 810.96 305.34"/><polygon class="cls-3" points="836.18 305.34 847.52 294.03 849.6 294.03 837.98 305.51 850.29 318.04 848.12 318.04 836.83 306.6 836.18 307.21 836.18 318.04 834.6 318.04 834.6 294.03 836.18 294.03 836.18 305.34"/><path class="cls-4" d="M392.78,359V238.48q0-24.26,12.9-41T439,180.65a34.77,34.77,0,0,1,20.28,6.11q8.82,6.11,8.83,16.4a25.23,25.23,0,0,1-5.63,16.3,17.84,17.84,0,0,1-14.55,7,22.31,22.31,0,0,1-13.29-4.07,12.53,12.53,0,0,1-5.72-10.68q0-6.59,4.27-10.09a.84.84,0,0,1,1.16-.2,3.36,3.36,0,0,1,1.26,2.52A5.39,5.39,0,0,0,437,207a7.2,7.2,0,0,0,5.63,2.14,12.13,12.13,0,0,1,1.75-.19,8.15,8.15,0,0,0,5.24-2.82,9.49,9.49,0,0,0,2.14-6.5A8.8,8.8,0,0,0,447.6,192a17.13,17.13,0,0,0-9.8-2.81q-10.48,0-15.33,8.63t-4.85,24.35V359"/><path class="cls-3" d="M495.57,357.68a132.94,132.94,0,0,1-27.35,81.87q-29.82,39.7-73.8,39.7-41.85,0-68.53-36.24Q301.18,409.41,301.18,363q0-37.56,13.67-65.73Q328,270,350.28,258.51a12.53,12.53,0,0,1,4.12-1.32c1,0,1.49.38,1.49,1.15,0,1.1-1,2.47-3,4.12a78.28,78.28,0,0,0-14.66,16.64q-7.75,12.36-11.7,29.49-4.61,20.43-4.61,51.07,0,39.37,23.89,70,24.71,31.79,58.48,31.79,31.14,0,50.57-22.24,21.25-24.38,21.25-68.69,0-47.28-24.71-84.34-23.73-35.58-51.07-35.58-11,0-17.55,5.52a18.17,18.17,0,0,0-6.5,14.58,16.15,16.15,0,0,0,3.13,9.64,9.68,9.68,0,0,0,8.24,4.36,19.66,19.66,0,0,0,2.47-.16,7,7,0,0,0,3-1.4,8.78,8.78,0,0,0,2.48-2.47,18,18,0,0,0,1.24-2.48q.49-1.23.82-2.22c0-.66.22-1,.66-1a2.26,2.26,0,0,1,1.65,1,16.32,16.32,0,0,1,1.65,7.91v1.65a7,7,0,0,0-.33,1.65,17.12,17.12,0,0,1-5.93,10.54A17.5,17.5,0,0,1,383.55,302a21.71,21.71,0,0,1-17.29-7.91A28.41,28.41,0,0,1,359.5,275q0-16.64,14.33-27,12.85-9.22,30.15-9.23,41,0,67,36.24,24.54,34.1,24.54,82.7"/><path class="cls-5" d="M417.62,349.45v99.77q0,33.18-10.68,55.5a73.15,73.15,0,0,1-22.51,27.75,90.44,90.44,0,0,1-19.22,10.29,3.07,3.07,0,0,1-2.81-.2,3.78,3.78,0,0,1-1.55-2.91q-.29-2.14-.48-4.66-.78-2.92-1.36-5a62,62,0,0,0-2.23-6.89q-1.07-2.62-2-4.75c-.39-.91-.33-1.55.19-1.94a3.57,3.57,0,0,1,2.53-.39l6,.78q11.83,0,18.82-10.87,10.47-16.1,10.47-55.11V349.45"/><path class="cls-3" d="M559.18,425.7v28.41l23.42-28.41h5.89v42.69h-8.32V439.85l-23.42,28.54h-5.89V425.7Z"/><path class="cls-3" d="M634.25,425.7v28.41l23.42-28.41h5.89v42.69h-8.32V439.85l-23.42,28.54h-5.89V425.7Z"/><path class="cls-3" d="M688,442.21h18V425.7h8.32v42.69h-8.32v-19H688v19h-8.32V425.7H688Z"/><path class="cls-3" d="M748,462.5h-1.15c-2.94,0-7.94-.32-12-3.2-3.07-2.18-6.4-6.27-6.4-13.57s3.33-11.39,6.4-13.57c4.1-2.88,9.09-3.2,12-3.2H748v-5h8.32v5h1.15c2.94,0,7.93.32,12,3.2,3.07,2.18,6.4,6.27,6.4,13.57s-3.33,11.39-6.4,13.57c-4.1,2.88-9.09,3.2-12,3.2h-1.15v5.89H748Zm0-26.37h-1.28a10.61,10.61,0,0,0-6.27,1.79c-1.54,1.15-3.46,3.52-3.46,7.81s1.92,6.59,3.46,7.81a9.23,9.23,0,0,0,6.27,1.79H748Zm8.32,19.2h1.28a9.57,9.57,0,0,0,6.33-1.79c1.47-1.15,3.39-3.52,3.39-7.81,0-3.71-1.47-6.4-3.39-7.81a10.65,10.65,0,0,0-6.33-1.79h-1.28Z"/><path class="cls-3" d="M833.54,447.08c0,13-9.34,22.27-22.78,22.27S788,460.07,788,447.08s9.34-22.33,22.78-22.33S833.54,434.09,833.54,447.08Zm-8.58,0c0-8.64-5.89-14.78-14.21-14.78s-14.21,6.14-14.21,14.78,5.89,14.72,14.21,14.72S825,455.72,825,447.08Z"/><path class="cls-3" d="M860,425.7c4.8,0,8.13.51,11.26,3.26a13.6,13.6,0,0,1,4.35,10.3c0,1.66-.26,6.27-3.52,9.54-2.37,2.37-5.89,3.78-10.82,3.78h-5.38v15.81h-8.32V425.7Zm-4.1,19.71h3.39a8.51,8.51,0,0,0,5.44-1.34,6.37,6.37,0,0,0,2.3-5,5.88,5.88,0,0,0-2.37-4.86c-1.73-1.22-3.9-1.34-5.89-1.34h-2.88Z"/><path class="cls-3" d="M891.34,425.7h6l11.33,27.13,11.84-27.13h6l7.17,42.69h-8.45l-3.84-26.3L910,468.39h-2.82l-10.94-26.3-4.35,26.3H883.4Z"/><path class="cls-3" d="M972.94,459.43H955.72l-3.78,9h-9l18.37-42.69h6.53l17.85,42.69h-9Zm-2.43-6.78-6.08-15.36-6.08,15.36Z"/><path class="cls-3" d="M1008.52,432.87v35.52h-8.32V432.87h-9.6V425.7h27.52v7.17Z"/><path class="cls-3" d="M1038.09,425.7v28.41l23.42-28.41h5.89v42.69h-8.32V439.85l-23.42,28.54h-5.89V425.7Z"/><path class="cls-3" d="M1091.85,443.75l15.68-18H1118l-18,19.71,19,23h-11l-15.17-19.13-1,1v18.17h-8.32V425.7h8.32Z"/><path class="cls-3" d="M1156.55,459.43h-17.21l-3.78,9h-9l18.37-42.69h6.53l17.85,42.69h-9Zm-2.43-6.78L1148,437.29,1142,452.65Z"/></g></g></svg>