<svg id="svg" version="1.1" width="400" height="539.0625" xmlns="http://www.w3.org/2000/svg" xmlns:xlink="http://www.w3.org/1999/xlink" style="display: block;"><g id="svgg"><path id="path0" d="M307.543 277.539 C 307.545 278.828,307.618 279.308,307.705 278.606 C 307.792 277.904,307.790 276.850,307.701 276.263 C 307.612 275.676,307.541 276.250,307.543 277.539 " stroke="none" fill="#000000" fill-rule="evenodd"></path><path id="path1" d="M37.500 12.500 L 37.500 14.453 36.035 14.460 C 27.843 14.498,21.600 19.372,20.755 26.389 C 19.543 36.457,25.646 43.359,35.761 43.359 L 37.500 43.359 37.500 45.313 L 37.500 47.266 40.039 47.266 L 42.578 47.266 42.578 45.313 L 42.578 43.359 44.317 43.359 C 53.741 43.359,59.180 38.071,59.180 28.906 C 59.180 19.773,53.659 14.504,44.043 14.460 L 42.578 14.453 42.578 12.500 L 42.578 10.547 40.039 10.547 L 37.500 10.547 37.500 12.500 M134.766 17.331 L 134.766 23.334 133.435 22.080 C 125.268 14.377,115.183 26.742,119.151 39.591 C 121.432 46.974,129.967 50.136,133.950 45.072 L 134.766 44.035 134.766 50.338 L 134.766 56.641 137.109 56.641 L 139.453 56.641 139.453 50.513 L 139.453 44.385 140.527 45.387 C 145.750 50.258,153.647 46.324,155.420 37.969 C 158.075 25.458,148.622 15.078,140.815 21.932 L 139.453 23.128 139.453 17.228 L 139.453 11.328 137.109 11.328 L 134.766 11.328 134.766 17.331 M37.500 28.960 L 37.500 39.170 35.411 38.925 C 28.729 38.139,25.596 34.935,25.615 28.906 C 25.635 22.853,29.782 19.037,36.621 18.783 L 37.500 18.750 37.500 28.960 M48.653 19.967 C 58.581 23.660,55.534 37.637,44.516 38.942 L 42.578 39.171 42.578 28.924 L 42.578 18.677 44.629 18.955 C 45.757 19.108,47.568 19.563,48.653 19.967 M167.450 20.457 C 160.317 22.468,156.912 31.792,160.168 40.398 C 163.874 50.191,178.995 49.618,182.260 39.560 C 186.073 27.811,178.054 17.467,167.450 20.457 M196.037 20.535 C 194.900 20.885,193.768 21.610,193.009 22.475 L 191.797 23.855 191.797 22.279 L 191.797 20.703 189.453 20.703 L 187.109 20.703 187.109 38.672 L 187.109 56.641 189.453 56.641 L 191.797 56.641 191.797 50.408 L 191.797 44.176 192.777 45.156 C 197.822 50.202,206.976 47.038,209.277 39.453 C 212.842 27.702,205.737 17.549,196.037 20.535 M254.034 20.304 C 250.001 21.165,247.266 24.163,247.266 27.722 C 247.266 28.896,247.284 28.906,249.399 28.906 L 251.532 28.906 251.949 27.358 C 253.283 22.405,262.891 22.885,262.891 27.904 C 262.891 30.256,262.220 30.679,257.617 31.227 C 248.752 32.284,246.124 34.251,246.103 39.844 C 246.076 47.038,255.890 50.159,261.912 44.871 L 263.195 43.745 263.440 44.719 C 263.838 46.307,265.214 46.930,268.028 46.797 L 270.508 46.680 270.628 45.020 C 270.745 43.400,270.719 43.359,269.544 43.359 C 267.760 43.359,267.578 42.413,267.578 33.126 C 267.578 23.493,267.431 23.015,263.929 21.302 C 261.628 20.176,256.879 19.698,254.034 20.304 M360.674 20.304 C 356.642 21.165,353.906 24.163,353.906 27.722 C 353.906 28.896,353.925 28.906,356.040 28.906 L 358.173 28.906 358.590 27.358 C 359.924 22.405,369.531 22.885,369.531 27.904 C 369.531 30.256,368.861 30.679,364.258 31.227 C 355.393 32.284,352.764 34.251,352.744 39.844 C 352.717 47.038,362.531 50.159,368.553 44.871 L 369.836 43.745 370.080 44.719 C 370.479 46.307,371.855 46.930,374.668 46.797 L 377.148 46.680 377.269 45.020 C 377.386 43.400,377.360 43.359,376.185 43.359 C 374.400 43.359,374.219 42.413,374.219 33.126 C 374.219 23.493,374.071 23.015,370.569 21.302 C 368.268 20.176,363.520 19.698,360.674 20.304 M64.063 33.611 L 64.063 46.519 66.860 46.404 L 69.657 46.289 75.649 36.939 L 81.641 27.588 81.641 37.036 L 81.641 46.484 83.984 46.484 L 86.328 46.484 86.328 33.594 L 86.328 20.703 83.691 20.706 L 81.055 20.708 75.000 30.159 L 68.945 39.609 68.841 30.156 L 68.736 20.703 66.399 20.703 L 64.063 20.703 64.063 33.611 M92.578 33.594 L 92.578 46.484 94.922 46.484 L 97.266 46.484 97.266 40.820 L 97.266 35.156 103.125 35.156 L 108.984 35.156 108.984 40.820 L 108.984 46.484 111.328 46.484 L 113.672 46.484 113.672 33.594 L 113.672 20.703 111.328 20.703 L 108.984 20.703 108.984 25.977 L 108.984 31.250 103.125 31.250 L 97.266 31.250 97.266 25.977 L 97.266 20.703 94.922 20.703 L 92.578 20.703 92.578 33.594 M214.844 33.579 L 214.844 46.484 216.992 46.484 L 219.141 46.484 219.183 36.816 L 219.225 27.148 222.399 36.816 L 225.572 46.484 227.929 46.484 L 230.285 46.484 233.470 37.012 L 236.654 27.539 236.687 37.012 L 236.719 46.484 238.867 46.484 L 241.016 46.484 241.016 33.594 L 241.016 20.703 237.910 20.703 L 234.804 20.703 231.587 30.664 C 229.819 36.143,228.266 40.625,228.138 40.625 C 228.010 40.625,226.477 36.187,224.733 30.762 L 221.562 20.898 218.203 20.786 L 214.844 20.673 214.844 33.579 M272.656 22.852 L 272.656 25.000 276.953 25.000 L 281.250 25.000 281.250 35.742 L 281.250 46.484 283.594 46.484 L 285.938 46.484 285.938 35.742 L 285.938 25.000 290.430 25.000 L 294.922 25.000 294.922 22.852 L 294.922 20.703 283.789 20.703 L 272.656 20.703 272.656 22.852 M298.828 33.611 L 298.828 46.519 301.625 46.404 L 304.423 46.289 310.414 36.939 L 316.406 27.588 316.406 37.036 L 316.406 46.484 318.750 46.484 L 321.094 46.484 321.094 33.594 L 321.094 20.703 318.457 20.706 L 315.820 20.708 309.766 30.159 L 303.711 39.609 303.606 30.156 L 303.502 20.703 301.165 20.703 L 298.828 20.703 298.828 33.611 M327.344 33.594 L 327.344 46.484 329.688 46.484 L 332.031 46.484 332.038 42.090 L 332.045 37.695 333.533 36.461 L 335.020 35.226 339.820 40.855 L 344.620 46.484 347.724 46.484 C 350.104 46.484,350.758 46.371,350.531 45.996 C 350.368 45.728,347.685 42.540,344.568 38.912 L 338.901 32.317 344.939 26.527 L 350.977 20.737 347.810 20.720 L 344.643 20.703 338.435 26.653 L 332.227 32.602 332.119 26.653 L 332.011 20.703 329.677 20.703 L 327.344 20.703 327.344 33.594 M131.681 25.103 C 135.618 27.725,135.958 39.573,132.182 42.544 C 129.499 44.654,125.429 42.972,123.951 39.142 C 120.803 30.984,126.091 21.380,131.681 25.103 M147.986 25.287 C 153.503 29.405,151.262 43.359,145.084 43.359 C 141.010 43.359,139.718 41.400,139.521 34.926 C 139.254 26.163,143.177 21.696,147.986 25.287 M173.554 24.747 C 179.834 27.370,179.819 39.882,173.534 42.662 C 168.396 44.935,163.853 40.645,163.877 33.546 C 163.900 26.885,168.550 22.656,173.554 24.747 M200.891 24.754 C 206.721 27.238,206.719 40.078,200.889 42.657 C 195.907 44.861,191.953 40.819,192.025 33.594 C 192.095 26.582,196.013 22.676,200.891 24.754 M262.220 39.970 C 260.137 43.614,253.000 44.564,251.371 41.414 C 249.531 37.855,251.968 35.722,258.755 34.955 C 260.025 34.811,261.431 34.557,261.880 34.390 C 263.044 33.957,263.296 38.087,262.220 39.970 M368.861 39.970 C 366.778 43.614,359.641 44.564,358.012 41.414 C 356.171 37.855,358.609 35.722,365.395 34.955 C 366.666 34.811,368.072 34.557,368.520 34.390 C 369.685 33.957,369.937 38.087,368.861 39.970 M200.781 132.806 C 192.167 133.478,188.351 133.983,184.680 134.940 C 153.781 142.989,138.640 164.233,148.895 185.152 C 160.597 209.020,203.035 207.281,204.210 182.885 C 204.623 174.302,201.005 169.370,198.416 174.987 C 192.516 187.787,172.730 184.435,169.861 170.149 C 167.872 160.244,175.780 150.722,188.867 147.261 C 190.586 146.807,192.695 146.242,193.555 146.005 C 199.755 144.300,223.442 146.864,226.746 149.598 C 226.967 149.782,228.555 150.490,230.273 151.172 C 265.080 164.982,298.181 209.365,305.437 251.953 C 316.597 317.463,286.501 366.485,229.387 375.824 C 226.121 376.359,226.458 375.744,225.777 382.422 C 225.357 386.546,224.469 392.184,223.978 393.848 C 223.693 394.812,224.372 394.745,230.685 393.186 C 290.029 378.534,335.152 322.237,335.156 262.843 C 335.161 185.568,274.686 127.045,200.781 132.806 M135.742 153.157 C 125.831 155.962,109.963 166.186,100.000 176.185 C 62.031 214.291,53.426 283.623,80.658 332.029 C 102.523 370.897,143.379 396.395,184.759 396.999 L 189.635 397.070 190.128 393.945 C 190.677 390.463,191.797 379.462,191.797 377.547 L 191.797 376.313 188.574 375.797 C 145.417 368.885,105.452 330.361,96.351 286.899 C 92.314 267.621,94.279 231.549,100.568 209.493 C 106.804 187.621,117.685 172.397,136.719 158.914 C 143.206 154.319,142.676 151.194,135.742 153.157 M111.133 479.843 C 106.123 481.428,103.738 484.210,103.146 489.160 L 102.878 491.406 105.294 491.406 L 107.710 491.406 107.928 489.780 C 108.999 481.794,124.894 481.424,124.778 489.388 C 124.723 493.208,122.818 494.527,116.923 494.828 L 112.891 495.034 112.891 496.871 L 112.891 498.709 117.185 498.954 C 124.879 499.395,127.886 502.685,125.293 507.827 C 122.125 514.110,107.031 512.499,107.031 505.879 C 107.031 505.152,106.792 505.078,104.439 505.078 L 101.847 505.078 102.088 506.837 C 103.764 519.064,127.971 519.853,130.868 507.774 C 131.912 503.425,130.168 498.747,126.862 497.026 L 125.794 496.471 127.299 495.111 C 131.092 491.684,130.297 484.379,125.801 481.350 C 122.888 479.386,115.105 478.587,111.133 479.843 M142.706 489.054 C 138.673 489.915,135.938 492.913,135.938 496.472 C 135.938 497.646,135.956 497.656,138.071 497.656 L 140.204 497.656 140.621 496.108 C 141.955 491.155,151.563 491.635,151.563 496.654 C 151.563 499.006,150.892 499.429,146.289 499.977 C 137.424 501.034,134.796 503.001,134.775 508.594 C 134.748 515.788,144.562 518.909,150.584 513.621 L 151.867 512.495 152.112 513.469 C 152.510 515.057,153.886 515.680,156.700 515.547 L 159.180 515.430 159.300 513.770 C 159.417 512.150,159.391 512.109,158.216 512.109 C 156.432 512.109,156.250 511.163,156.250 501.876 C 156.250 492.243,156.103 491.765,152.600 490.052 C 150.300 488.926,145.551 488.448,142.706 489.054 M221.158 489.392 C 211.454 492.859,210.449 511.047,219.727 515.285 C 226.221 518.251,235.156 513.432,235.156 506.962 C 235.156 505.625,230.947 505.950,230.458 507.324 C 228.227 513.604,221.184 513.924,218.864 507.850 C 218.020 505.640,217.951 500.930,218.723 498.269 C 220.509 492.113,228.330 491.034,230.251 496.680 C 230.975 498.806,235.159 499.406,235.152 497.383 C 235.132 491.480,227.505 487.125,221.158 489.392 M163.281 502.344 L 163.281 515.234 165.625 515.234 L 167.969 515.234 167.969 504.492 L 167.969 493.750 173.828 493.750 L 179.688 493.750 179.688 504.492 L 179.688 515.234 182.031 515.234 L 184.375 515.234 184.375 502.344 L 184.375 489.453 173.828 489.453 L 163.281 489.453 163.281 502.344 M187.500 489.742 C 187.500 489.920,189.606 495.889,192.180 503.007 L 196.860 515.948 196.029 518.033 C 194.864 520.958,194.019 521.610,191.685 521.385 L 189.808 521.205 189.924 523.395 L 190.039 525.586 191.788 525.710 C 197.789 526.137,197.975 525.861,205.621 505.078 C 208.506 497.236,210.989 490.513,211.139 490.137 C 211.383 489.525,211.127 489.453,208.722 489.453 L 206.031 489.453 202.656 499.660 L 199.280 509.868 196.008 499.758 L 192.736 489.648 190.118 489.533 C 188.678 489.469,187.500 489.563,187.500 489.742 M239.063 502.344 L 239.063 515.234 241.406 515.234 L 243.750 515.234 243.757 510.840 L 243.764 506.445 245.252 505.211 L 246.739 503.976 251.539 509.605 L 256.339 515.234 259.442 515.234 C 261.823 515.234,262.477 515.121,262.250 514.746 C 262.087 514.478,259.403 511.290,256.287 507.662 L 250.620 501.067 256.658 495.277 L 262.695 489.487 259.529 489.470 L 256.362 489.453 250.154 495.403 L 243.945 501.352 243.837 495.403 L 243.730 489.453 241.396 489.453 L 239.063 489.453 239.063 502.344 M150.892 508.720 C 148.809 512.364,141.672 513.314,140.043 510.164 C 138.203 506.605,140.640 504.472,147.427 503.705 C 148.697 503.561,150.103 503.307,150.552 503.140 C 151.716 502.707,151.968 506.837,150.892 508.720 M266.797 512.695 L 266.797 515.234 269.531 515.234 L 272.266 515.234 272.266 512.695 L 272.266 510.156 269.531 510.156 L 266.797 510.156 266.797 512.695 M280.078 512.695 L 280.078 515.234 282.813 515.234 L 285.547 515.234 285.547 512.695 L 285.547 510.156 282.813 510.156 L 280.078 510.156 280.078 512.695 M293.750 512.695 L 293.750 515.234 296.484 515.234 L 299.219 515.234 299.219 512.695 L 299.219 510.156 296.484 510.156 L 293.750 510.156 293.750 512.695 " stroke="none" fill="#002e3e" fill-rule="evenodd"></path><path id="path2" d="M202.641 132.698 C 203.127 132.792,203.830 132.788,204.204 132.690 C 204.577 132.592,204.180 132.516,203.320 132.520 C 202.461 132.525,202.155 132.605,202.641 132.698 M212.402 132.698 C 212.886 132.791,213.677 132.791,214.160 132.698 C 214.644 132.604,214.248 132.528,213.281 132.528 C 212.314 132.528,211.919 132.604,212.402 132.698 M205.566 145.582 C 205.942 145.680,206.558 145.680,206.934 145.582 C 207.310 145.484,207.002 145.403,206.250 145.403 C 205.498 145.403,205.190 145.484,205.566 145.582 M204.409 182.227 C 204.412 183.301,204.487 183.694,204.577 183.100 C 204.667 182.506,204.665 181.627,204.572 181.147 C 204.479 180.667,204.406 181.152,204.409 182.227 " stroke="none" fill="#4c2837" fill-rule="evenodd"></path><path id="path3" d="M201.465 145.595 C 202.163 145.682,203.306 145.682,204.004 145.595 C 204.702 145.508,204.131 145.438,202.734 145.438 C 201.338 145.438,200.767 145.508,201.465 145.595 " stroke="none" fill="#922430" fill-rule="evenodd"></path><path id="path4" d="" stroke="none" fill="#c5202b" fill-rule="evenodd"></path><path id="path5" d="M245.462 68.963 C 215.754 73.299,194.249 96.887,192.198 127.384 C 191.761 133.894,191.656 133.566,194.029 133.132 C 199.221 132.180,222.773 132.408,226.270 133.444 C 226.910 133.634,226.953 132.903,226.953 121.886 C 226.953 89.428,233.996 78.368,254.688 78.331 C 269.014 78.306,277.128 85.375,272.711 94.033 C 268.799 101.701,254.257 101.509,251.687 93.755 C 249.585 87.412,242.188 94.247,242.188 102.532 C 242.188 117.968,272.115 125.070,286.917 113.145 C 295.025 106.613,298.745 96.367,296.108 87.834 C 291.903 74.230,268.675 65.575,245.462 68.963 M194.880 146.061 C 193.675 146.231,192.489 146.494,192.243 146.645 C 191.919 146.845,191.797 151.692,191.797 164.306 L 191.797 181.691 193.413 180.787 C 195.368 179.693,197.287 177.274,198.479 174.398 C 200.442 169.662,204.141 173.450,204.589 180.654 C 205.044 187.973,201.556 194.113,194.531 198.357 L 191.992 199.892 191.925 289.301 C 191.855 381.855,191.824 384.334,190.650 391.797 C 185.516 424.418,171.075 440.099,148.137 437.960 C 141.293 437.322,140.379 437.356,139.453 438.281 L 138.672 439.063 141.165 443.959 C 143.902 449.334,146.992 458.305,147.617 462.695 C 148.424 468.361,150.593 468.793,160.338 465.228 C 188.888 454.783,206.434 439.460,217.186 415.582 C 219.958 409.426,223.861 397.041,223.760 394.723 C 223.741 394.295,224.091 391.836,224.538 389.258 C 224.985 386.680,225.552 382.813,225.798 380.664 C 226.045 378.516,226.396 375.439,226.579 373.828 C 226.761 372.217,226.920 321.187,226.932 260.429 L 226.953 149.960 225.669 149.424 C 223.999 148.726,218.600 147.350,214.648 146.616 C 211.089 145.955,198.205 145.593,194.880 146.061 " stroke="none" fill="#ff1a23" fill-rule="evenodd"></path></g></svg>