<svg xmlns="http://www.w3.org/2000/svg" xmlns:xlink="http://www.w3.org/1999/xlink" viewBox="0 0 403 403"><defs><style>.cls-1{fill:#033240;}.cls-2{fill:#9ac355;}.cls-3{fill:#fff;}.cls-4{fill:url(#linear-gradient);}</style><linearGradient id="linear-gradient" x1="186.81" y1="359.12" x2="186.81" y2="191.26" gradientUnits="userSpaceOnUse"><stop offset="0" stop-color="#f1c056"/><stop offset="0.21" stop-color="#edc056"/><stop offset="0.43" stop-color="#e0c156"/><stop offset="0.65" stop-color="#ccc156"/><stop offset="0.87" stop-color="#afc255"/><stop offset="1" stop-color="#9ac355"/></linearGradient></defs><title>suk</title><g id="Слой_2" data-name="Слой 2"><g id="Layer_1" data-name="Layer 1"><path class="cls-1" d="M177.1,392.91l-167-167.46a34.75,34.75,0,0,1,0-48.91l167-166.45a34.55,34.55,0,0,1,48.79,0l167,166.45a34.75,34.75,0,0,1,0,48.91l-167,167.46a34.54,34.54,0,0,1-48.79,0"/><path class="cls-2" d="M192.64,199.55V95q0-21,11.19-35.59t28.86-14.56a30.16,30.16,0,0,1,17.59,5.3q7.65,5.3,7.66,14.22a21.89,21.89,0,0,1-4.88,14.14,15.49,15.49,0,0,1-12.62,6.06,19.39,19.39,0,0,1-11.53-3.53,10.88,10.88,0,0,1-5-9.26q0-5.72,3.7-8.75a.73.73,0,0,1,1-.17,2.92,2.92,0,0,1,1.1,2.19A4.64,4.64,0,0,0,231,67.77a6.24,6.24,0,0,0,4.88,1.85,10.75,10.75,0,0,1,1.52-.17A7,7,0,0,0,241.95,67a8.22,8.22,0,0,0,1.85-5.64,7.62,7.62,0,0,0-3.62-6.65,14.89,14.89,0,0,0-8.5-2.44q-9.09,0-13.29,7.49t-4.21,21.12V199.55"/><path class="cls-3" d="M297.5,198.4q0,39.43-28.13,71-30.68,34.43-75.94,34.43-43.05,0-70.51-31.43Q97.5,243.26,97.5,203q0-32.57,14.07-57Q125.12,122.4,148,112.4a14.85,14.85,0,0,1,4.23-1.15c1,0,1.53.34,1.53,1,0,1-1,2.14-3.05,3.57a73.39,73.39,0,0,0-15.08,14.43,76,76,0,0,0-12,25.57q-4.74,17.71-4.75,44.29,0,34.14,24.58,60.71,25.43,27.57,60.17,27.57,32,0,52-19.29Q277.5,248,277.5,209.54a114.75,114.75,0,0,0-25.42-73.14q-24.41-30.86-52.54-30.86-11.36,0-18.06,4.79A14.83,14.83,0,0,0,174.79,123a12.59,12.59,0,0,0,3.21,8.36,10.58,10.58,0,0,0,8.48,3.79A25.12,25.12,0,0,0,189,135a7.92,7.92,0,0,0,3.13-1.21,8.43,8.43,0,0,0,2.54-2.14,14.38,14.38,0,0,0,1.27-2.14c.34-.72.62-1.36.85-1.93,0-.57.23-.86.68-.86a2.45,2.45,0,0,1,1.69.86,12.33,12.33,0,0,1,1.69,6.86v1.43a5.26,5.26,0,0,0-.34,1.43,14.43,14.43,0,0,1-6.1,9.14,20.13,20.13,0,0,1-12.21,3.71q-10.85,0-17.8-6.86a22.43,22.43,0,0,1-6.95-16.57q0-14.42,14.75-23.43,13.22-8,31-8,42.2,0,69,31.43,25.25,29.58,25.25,71.72"/><path class="cls-4" d="M214.18,191.26v86.52q0,28.78-9.25,48.13A63.47,63.47,0,0,1,185.41,350a78.41,78.41,0,0,1-16.66,8.92,2.66,2.66,0,0,1-2.44-.17,3.27,3.27,0,0,1-1.35-2.52q-.26-1.85-.42-4-.67-2.53-1.17-4.38a54.12,54.12,0,0,0-1.93-6q-.93-2.27-1.77-4.12c-.34-.79-.28-1.35.17-1.69a3.1,3.1,0,0,1,2.19-.34l5.21.67q10.26,0,16.33-9.42,9.09-14,9.08-47.8V191.26"/></g></g></svg>